G04*
G04 #@! TF.GenerationSoftware,Altium Limited,Altium Designer,19.0.4 (130)*
G04*
G04 Layer_Color=16711935*
%FSLAX25Y25*%
%MOIN*%
G70*
G01*
G75*
%ADD12C,0.00394*%
%ADD127C,0.00000*%
D12*
X53705Y40264D02*
G03*
X53705Y40264I-1969J0D01*
G01*
X22594Y199787D02*
X34405D01*
X22594Y194276D02*
X34405D01*
Y199787D01*
X22594Y194276D02*
Y199787D01*
X12917Y183433D02*
Y187567D01*
X15083Y183433D02*
Y187567D01*
X12917Y183433D02*
X15083D01*
X12917Y187567D02*
X15083D01*
X29583Y180433D02*
Y184567D01*
X27417Y180433D02*
Y184567D01*
X29583D01*
X27417Y180433D02*
X29583D01*
X21420Y121319D02*
Y123681D01*
X25751Y121319D02*
Y123681D01*
X21420D02*
X25751D01*
X21420Y121319D02*
X25751D01*
X18933Y170917D02*
X23067D01*
X18933Y173083D02*
X23067D01*
Y170917D02*
Y173083D01*
X18933Y170917D02*
Y173083D01*
X18933Y163083D02*
X23067D01*
X18933Y160917D02*
X23067D01*
X18933D02*
Y163083D01*
X23067Y160917D02*
Y163083D01*
X14285Y101819D02*
Y104181D01*
X18616Y101819D02*
Y104181D01*
X14285D02*
X18616D01*
X14285Y101819D02*
X18616D01*
X12218Y109870D02*
X19108D01*
X12218Y106130D02*
X19108D01*
X12218D02*
Y109870D01*
X19108Y106130D02*
Y109870D01*
X25358Y101819D02*
Y104181D01*
X29689Y101819D02*
Y104181D01*
X25358D02*
X29689D01*
X25358Y101819D02*
X29689D01*
X24866Y109870D02*
X31756D01*
X24866Y106130D02*
X31756D01*
X24866D02*
Y109870D01*
X31756Y106130D02*
Y109870D01*
X13933Y48583D02*
X18067D01*
X13933Y46417D02*
X18067D01*
X13933D02*
Y48583D01*
X18067Y46417D02*
Y48583D01*
X13933Y50917D02*
X18067D01*
X13933Y53083D02*
X18067D01*
Y50917D02*
Y53083D01*
X13933Y50917D02*
Y53083D01*
X134311Y190370D02*
X141201D01*
X134311Y186630D02*
X141201D01*
X134311D02*
Y190370D01*
X141201Y186630D02*
Y190370D01*
X133819Y183102D02*
X136181D01*
X133819Y178772D02*
X136181D01*
Y183102D01*
X133819Y178772D02*
Y183102D01*
X134803Y173319D02*
Y175681D01*
X139134Y173319D02*
Y175681D01*
X134803D02*
X139134D01*
X134803Y173319D02*
X139134D01*
X118044Y73169D02*
X123556D01*
X118044Y81831D02*
X123556D01*
X118044Y73169D02*
Y81831D01*
X123556Y73169D02*
Y81831D01*
X133819Y134165D02*
X136181D01*
X133819Y129835D02*
X136181D01*
Y134165D01*
X133819Y129835D02*
Y134165D01*
X143634Y132787D02*
Y135150D01*
X139303Y132787D02*
Y135150D01*
Y132787D02*
X143634D01*
X139303Y135150D02*
X143634D01*
X76811Y19130D02*
X83701D01*
X76811Y22870D02*
X83701D01*
Y19130D02*
Y22870D01*
X76811Y19130D02*
Y22870D01*
X141705Y97583D02*
X145839D01*
X141705Y95417D02*
X145839D01*
X141705D02*
Y97583D01*
X145839Y95417D02*
Y97583D01*
X142083Y108161D02*
Y112295D01*
X139917Y108161D02*
Y112295D01*
X142083D01*
X139917Y108161D02*
X142083D01*
X142555Y55610D02*
X149445D01*
X142555Y51870D02*
X149445D01*
X142555D02*
Y55610D01*
X149445Y51870D02*
Y55610D01*
X163118Y46496D02*
Y63504D01*
X152882Y46496D02*
Y63504D01*
X163118D01*
X152882Y46496D02*
X163118D01*
X130256Y44016D02*
Y55984D01*
X124744Y44016D02*
Y55984D01*
Y44016D02*
X130256D01*
X124744Y55984D02*
X130256D01*
X143961Y43417D02*
X148094D01*
X143961Y45583D02*
X148094D01*
Y43417D02*
Y45583D01*
X143961Y43417D02*
Y45583D01*
X43417Y22661D02*
Y26795D01*
X45583Y22661D02*
Y26795D01*
X43417Y22661D02*
X45583D01*
X43417Y26795D02*
X45583D01*
X96638Y60169D02*
X102150D01*
X96638Y68831D02*
X102150D01*
X96638Y60169D02*
Y68831D01*
X102150Y60169D02*
Y68831D01*
X135398Y32772D02*
X148784D01*
X135398Y39661D02*
X148784D01*
Y32772D02*
Y39661D01*
X135398Y32772D02*
Y39661D01*
X98016Y55480D02*
X106677D01*
X98016Y49772D02*
X106677D01*
X98016D02*
Y55480D01*
X106677Y49772D02*
Y55480D01*
X98016Y47354D02*
X106677D01*
X98016Y41646D02*
X106677D01*
X98016D02*
Y47354D01*
X106677Y41646D02*
Y47354D01*
X114370Y32055D02*
Y38945D01*
X110630Y32055D02*
Y38945D01*
X114370D01*
X110630Y32055D02*
X114370D01*
X101854Y23870D02*
X108744D01*
X101854Y20130D02*
X108744D01*
X101854D02*
Y23870D01*
X108744Y20130D02*
Y23870D01*
X108587Y25319D02*
Y27681D01*
X104256Y25319D02*
Y27681D01*
Y25319D02*
X108587D01*
X104256Y27681D02*
X108587D01*
X68484Y28551D02*
X72618D01*
X68484Y26386D02*
X72618D01*
X68484D02*
Y28551D01*
X72618Y26386D02*
Y28551D01*
X68484Y42051D02*
X72618D01*
X68484Y39886D02*
X72618D01*
X68484D02*
Y42051D01*
X72618Y39886D02*
Y42051D01*
X68484Y33051D02*
X72618D01*
X68484Y30886D02*
X72618D01*
X68484D02*
Y33051D01*
X72618Y30886D02*
Y33051D01*
X68484Y37551D02*
X72618D01*
X68484Y35386D02*
X72618D01*
X68484D02*
Y37551D01*
X72618Y35386D02*
Y37551D01*
X29492Y73898D02*
X31854D01*
X29492Y78228D02*
X31854D01*
X29492Y73898D02*
Y78228D01*
X31854Y73898D02*
Y78228D01*
X27720Y64280D02*
X55279D01*
X27720Y36720D02*
X55279D01*
X27720D02*
Y64280D01*
X55279Y36720D02*
Y64280D01*
X25665Y26319D02*
Y28681D01*
X21335Y26319D02*
Y28681D01*
Y26319D02*
X25665D01*
X21335Y28681D02*
X25665D01*
X49669Y19630D02*
X56559D01*
X49669Y23370D02*
X56559D01*
Y19630D02*
Y23370D01*
X49669Y19630D02*
Y23370D01*
X54492Y25319D02*
Y27681D01*
X50161Y25319D02*
Y27681D01*
Y25319D02*
X54492D01*
X50161Y27681D02*
X54492D01*
X75866Y49220D02*
Y56110D01*
X72126Y49220D02*
Y56110D01*
X75866D01*
X72126Y49220D02*
X75866D01*
X67598Y51287D02*
X69961D01*
X67598Y55618D02*
X69961D01*
X67598Y51287D02*
Y55618D01*
X69961Y51287D02*
Y55618D01*
X82709Y246665D02*
X85071D01*
X82709Y242335D02*
X85071D01*
Y246665D01*
X82709Y242335D02*
Y246665D01*
X79756Y237319D02*
Y239681D01*
X84087Y237319D02*
Y239681D01*
X79756D02*
X84087D01*
X79756Y237319D02*
X84087D01*
X83693Y233287D02*
Y235650D01*
X88024Y233287D02*
Y235650D01*
X83693D02*
X88024D01*
X83693Y233287D02*
X88024D01*
X91961Y229287D02*
Y231650D01*
X87630Y229287D02*
Y231650D01*
Y229287D02*
X91961D01*
X87630Y231650D02*
X91961D01*
X86646Y226165D02*
X89008D01*
X86646Y221835D02*
X89008D01*
Y226165D01*
X86646Y221835D02*
Y226165D01*
X83693Y216319D02*
Y218681D01*
X88024Y216319D02*
Y218681D01*
X83693D02*
X88024D01*
X83693Y216319D02*
X88024D01*
X97425Y214819D02*
Y217181D01*
X93094Y214819D02*
Y217181D01*
Y214819D02*
X97425D01*
X93094Y217181D02*
X97425D01*
X92110Y211665D02*
X94472D01*
X92110Y207335D02*
X94472D01*
Y211665D01*
X92110Y207335D02*
Y211665D01*
X86646D02*
X89008D01*
X86646Y207335D02*
X89008D01*
Y211665D01*
X86646Y207335D02*
Y211665D01*
X77409Y199319D02*
Y201681D01*
X81740Y199319D02*
Y201681D01*
X77409D02*
X81740D01*
X77409Y199319D02*
X81740D01*
X77409Y203319D02*
Y205681D01*
X81740Y203319D02*
Y205681D01*
X77409D02*
X81740D01*
X77409Y203319D02*
X81740D01*
X87090Y199130D02*
X93980D01*
X87090Y202870D02*
X93980D01*
Y199130D02*
Y202870D01*
X87090Y199130D02*
Y202870D01*
X110787Y196835D02*
X113150D01*
X110787Y201165D02*
X113150D01*
X110787Y196835D02*
Y201165D01*
X113150Y196835D02*
Y201165D01*
X106319Y196835D02*
X108681D01*
X106319Y201165D02*
X108681D01*
X106319Y196835D02*
Y201165D01*
X108681Y196835D02*
Y201165D01*
X102047Y196835D02*
X104409D01*
X102047Y201165D02*
X104409D01*
X102047Y196835D02*
Y201165D01*
X104409Y196835D02*
Y201165D01*
X69819Y188642D02*
X72181D01*
X69819Y192972D02*
X72181D01*
X69819Y188642D02*
Y192972D01*
X72181Y188642D02*
Y192972D01*
X58933Y185197D02*
X63067D01*
X58933Y187362D02*
X63067D01*
Y185197D02*
Y187362D01*
X58933Y185197D02*
Y187362D01*
Y182583D02*
X63067D01*
X58933Y180417D02*
X63067D01*
X58933D02*
Y182583D01*
X63067Y180417D02*
Y182583D01*
X102047Y192972D02*
X104409D01*
X102047Y188642D02*
X104409D01*
Y192972D01*
X102047Y188642D02*
Y192972D01*
X102933Y182638D02*
X107067D01*
X102933Y184803D02*
X107067D01*
Y182638D02*
Y184803D01*
X102933Y182638D02*
Y184803D01*
X107835Y177787D02*
Y180150D01*
X112165Y177787D02*
Y180150D01*
X107835D02*
X112165D01*
X107835Y177787D02*
X112165D01*
X102047Y179165D02*
X104410D01*
X102047Y174835D02*
X104410D01*
Y179165D01*
X102047Y174835D02*
Y179165D01*
X95665Y168669D02*
Y171031D01*
X91335Y168669D02*
Y171031D01*
Y168669D02*
X95665D01*
X91335Y171031D02*
X95665D01*
X85319Y165717D02*
X87681D01*
X85319Y170047D02*
X87681D01*
X85319Y165717D02*
Y170047D01*
X87681Y165717D02*
Y170047D01*
X85319Y138335D02*
X87681D01*
X85319Y142665D02*
X87681D01*
X85319Y138335D02*
Y142665D01*
X87681Y138335D02*
Y142665D01*
X89319Y131835D02*
X91681D01*
X89319Y136165D02*
X91681D01*
X89319Y131835D02*
Y136165D01*
X91681Y131835D02*
Y136165D01*
X81319Y131835D02*
X83681D01*
X81319Y136165D02*
X83681D01*
X81319Y131835D02*
Y136165D01*
X83681Y131835D02*
Y136165D01*
X88335Y126319D02*
Y128681D01*
X92665Y126319D02*
Y128681D01*
X88335D02*
X92665D01*
X88335Y126319D02*
X92665D01*
X95819Y127335D02*
X98181D01*
X95819Y131665D02*
X98181D01*
X95819Y127335D02*
Y131665D01*
X98181Y127335D02*
Y131665D01*
X80335Y126319D02*
Y128681D01*
X84665Y126319D02*
Y128681D01*
X80335D02*
X84665D01*
X80335Y126319D02*
X84665D01*
X84335Y121819D02*
Y124181D01*
X88665Y121819D02*
Y124181D01*
X84335D02*
X88665D01*
X84335Y121819D02*
X88665D01*
X83319Y114335D02*
X85681D01*
X83319Y118665D02*
X85681D01*
X83319Y114335D02*
Y118665D01*
X85681Y114335D02*
Y118665D01*
X78394Y114335D02*
X80756D01*
X78394Y118665D02*
X80756D01*
X78394Y114335D02*
Y118665D01*
X80756Y114335D02*
Y118665D01*
X87319Y114335D02*
X89681D01*
X87319Y118665D02*
X89681D01*
X87319Y114335D02*
Y118665D01*
X89681Y114335D02*
Y118665D01*
X93819Y114335D02*
X96181D01*
X93819Y118665D02*
X96181D01*
X93819Y114335D02*
Y118665D01*
X96181Y114335D02*
Y118665D01*
X69165Y108819D02*
Y111181D01*
X64835Y108819D02*
Y111181D01*
Y108819D02*
X69165D01*
X64835Y111181D02*
X69165D01*
X64933Y104917D02*
X69067D01*
X64933Y107083D02*
X69067D01*
Y104917D02*
Y107083D01*
X64933Y104917D02*
Y107083D01*
X69165Y98319D02*
Y100681D01*
X64835Y98319D02*
Y100681D01*
Y98319D02*
X69165D01*
X64835Y100681D02*
X69165D01*
X107319Y105235D02*
X109681D01*
X107319Y109565D02*
X109681D01*
X107319Y105235D02*
Y109565D01*
X109681Y105235D02*
Y109565D01*
X107319Y97665D02*
X109681D01*
X107319Y93335D02*
X109681D01*
Y97665D01*
X107319Y93335D02*
Y97665D01*
X100335Y100287D02*
Y102650D01*
X104665Y100287D02*
Y102650D01*
X100335D02*
X104665D01*
X100335Y100287D02*
X104665D01*
X92551Y79835D02*
X94913D01*
X92551Y84165D02*
X94913D01*
X92551Y79835D02*
Y84165D01*
X94913Y79835D02*
Y84165D01*
X88287Y79835D02*
X90650D01*
X88287Y84165D02*
X90650D01*
X88287Y79835D02*
Y84165D01*
X90650Y79835D02*
Y84165D01*
X80362Y213665D02*
X82724D01*
X80362Y209335D02*
X82724D01*
Y213665D01*
X80362Y209335D02*
Y213665D01*
X58933Y177583D02*
X63067D01*
X58933Y175417D02*
X63067D01*
X58933D02*
Y177583D01*
X63067Y175417D02*
Y177583D01*
D127*
X22520Y98905D02*
G03*
X24652Y98905I1066J0D01*
G01*
X16399Y96938D02*
G03*
X16399Y96938I-300J0D01*
G01*
M02*
