M48
;Layer_Color=9474304
;FILE_FORMAT=2:5
INCH,LZ
;TYPE=PLATED
T1F00S00C0.00600
T2F00S00C0.00787
T3F00S00C0.00800
T4F00S00C0.01000
T5F00S00C0.01200
T7F00S00C0.02000
T8F00S00C0.03543
T9F00S00C0.03937
T10F00S00C0.05000
T11F00S00C0.07874
;TYPE=NON_PLATED
T12F00S00C0.02441
%
T01
X0099394Y0034642
X0100969
Y0036217
T02
X0083496Y0097335
X0087827
X0135169Y0080394
X01395
Y0076063
X0143831
Y0080394
X0135169Y0076063
X0087827Y0101665
X0083496
X0084335Y0182835
Y0187165
X0088665
Y0182835
T03
X0005Y0191
Y0198
Y0205
Y0212
Y0219
Y0226
Y0233
Y024
Y0247
X0012Y0232
X0018419Y0217
X0032Y02259
X0025469Y024
X0047Y0244
X0052327Y0229
X0067Y0225
X0083Y02241
Y02297
X00792Y02338
X00794Y02431
Y02484
X0088532Y02483
Y02431
X00911Y02385
X0095969Y0236
X0092469Y02259
Y02207
X00982
X00987Y02109
X01047Y02107
X01106
X01163
X01106Y0225
X0106Y024
X0125Y0245
X0129Y0232
X0134Y0216
X0129Y02
X0149571Y0206
X0162Y0205
Y0212
Y0219
Y0226
Y0233
Y024
Y0247
X0147Y0241
X0149571Y02241
X0162Y0198
Y0191
Y0184
Y0177
Y0170088
Y0163
Y0156
Y0149
Y0142
Y0135
Y0128
Y0121
X0152Y0131
X0153Y01515
X0146618Y0164
X0133Y0158
X01255Y0146
X0111Y0142
X00992Y01363
X00948Y01393
X00914Y01438
X00821Y01408
X0079Y01447
X007828Y01375
X00779Y01324
X0079315Y0123031
X00947Y01231
X0101532Y01261
X0117Y0124
X0140512Y0142
X00959Y01629
X00911Y01653
X00821Y01676
X00787Y01634
X007Y0170153
X0063Y0193
X00727Y01975
Y02029
X00734Y02083
X00769Y02125
X0058Y0209531
X0043Y0215
X0046Y0198
X0055Y0147
X0066Y0139
X0058Y0127
X0064Y0248
X0061Y0267
X0054
X0047
X0048779Y0259
X0102Y0267
X0109
X0116
X0123
X0130032
X0137
X0144
X0151
X0158
X0162Y0261
Y0254
X01485Y0258
X0131Y0259
X0113Y0257
X0033032Y0254
X0033Y0267
X0026
X0019
X0012
X0016Y0259
X0005Y0261
Y0254
X004Y0267
T04
X01Y00265
X01045Y003044
X01083Y0034642
X0073Y0097469
T05
X0053355Y00155
X00615Y00215
X0072323Y0021323
X0081079Y0048
Y0055421
X0085532Y0080032
X0085563Y0083969
X00735Y00835
X0052Y0083453
X0041953Y0053453
X0044953Y0047547
X0118256Y0032744
X0113Y00265
X0146618Y0029118
X0148756Y0049
X0147Y006
X0142Y0061
X0137
X013776Y005374
X0139Y00445
X01255Y00605
X0158Y0072
X0154957Y0088957
X0155075Y0096
X01605
X0137Y00965
X0034938Y0096938
X0033969Y0091031
X0030673Y00821
X0035524Y0075866
X0028Y00695
X00195Y00655
X0016791Y00845
X00115Y00855
X00105Y0093
X0038Y0058
X0035727Y0050703
X0039Y00435
X0025555Y0033
X0021531Y0023031
X0021617Y0102914
X0034938Y0103
X0031067Y011334
X0025555
X0018419Y0113259
X0012907Y0113407
X0021617Y01175
X0033Y01225
X00325Y0137835
X00405Y0141
X0035524Y01515
X00285Y0176
X0008508Y0183728
X0020539Y0201461
X0009665Y0137835
X0010482Y0099
X0061Y00995
Y0106
X0061576Y0113259
X0075Y0114532
Y0118468
X00765Y011
X0073506Y0105431
X0068968Y0102469
X0076Y01275
X00765Y0149571
X0076571Y0158429
X0081079Y0172887
X00915Y0173673
X009965Y016985
X0106Y0172
X0111721Y0183721
X0108661Y0188839
X0108776Y0192776
X0116969Y0197031
X0116Y0205
X01075Y0204752
X0099
X0098532Y0197031
X0098968Y0188839
X008522Y019678
X00795Y02175
X0102Y0216
X0095969Y0230469
X0076Y02385
X01165Y0178969
X0096429Y01575
Y0149571
X0101532Y0131468
X0098968Y0118468
X0098968Y0114532
X0103032Y01055
X01085Y0101416
X0132Y01
X0141Y01035
X0145543Y0100043
X004839Y0145
X00455Y01515
X0067Y02605
X0100594Y0260405
T07
X00955Y002
X01115Y00185
X0113Y0048126
X0108Y0061
X0118Y0066
X0107Y00755
X01208Y00883
X0130165Y0125
X0130032Y0133968
X0143437Y0128063
X0146Y01745
X01485Y0182905
X0146Y0193988
X0127894Y01885
Y0178969
X01285Y01695
T08
X0045Y00105
X0035
X0025
X0015
X00065Y0038
Y0048
Y0058
X00105Y0152
Y0162
Y0172
T09
X008389Y02545
T10
X00624Y001
X00775
X0095
T11
X0059Y0161
X0109394
T12
X0133429Y0018139
X0149571
M30
