G04*
G04 #@! TF.GenerationSoftware,Altium Limited,Altium Designer,19.0.4 (130)*
G04*
G04 Layer_Color=255*
%FSLAX25Y25*%
%MOIN*%
G70*
G01*
G75*
%ADD21O,0.00984X0.03937*%
%ADD22O,0.03937X0.00984*%
%ADD23R,0.09449X0.09449*%
%ADD24R,0.04724X0.05512*%
%ADD25R,0.02559X0.06102*%
%ADD26R,0.02559X0.03150*%
%ADD27R,0.04600X0.03500*%
%ADD28R,0.02362X0.04528*%
%ADD29R,0.02165X0.02165*%
%ADD30R,0.03937X0.03543*%
%ADD31R,0.02362X0.01968*%
%ADD32R,0.02165X0.02165*%
%ADD33R,0.00984X0.01378*%
%ADD34R,0.01870X0.00984*%
%ADD35R,0.03150X0.03543*%
%ADD36R,0.01968X0.02362*%
%ADD37R,0.05512X0.04528*%
%ADD38O,0.02362X0.05709*%
%ADD39R,0.13425X0.09921*%
%ADD40R,0.07874X0.07874*%
%ADD41R,0.03937X0.02362*%
%ADD42R,0.04724X0.06890*%
%ADD43C,0.00827*%
%ADD44R,0.04331X0.05512*%
%ADD45R,0.07087X0.04331*%
%ADD46R,0.03543X0.03150*%
%ADD47R,0.01575X0.07087*%
%ADD48C,0.07874*%
%ADD49O,0.01181X0.07087*%
%ADD50O,0.07087X0.01181*%
%ADD51R,0.05906X0.15748*%
%ADD52R,0.08504X0.08504*%
%ADD53O,0.04331X0.01378*%
%ADD54O,0.01378X0.04331*%
%ADD100C,0.11811*%
%ADD101C,0.05906*%
%ADD102R,0.05906X0.05906*%
%ADD103R,0.05906X0.05906*%
%ADD104C,0.02441*%
%ADD105O,0.03150X0.07087*%
D21*
X81724Y92118D02*
D03*
X83693D02*
D03*
X85661D02*
D03*
X87630D02*
D03*
X89598D02*
D03*
Y106882D02*
D03*
X87630D02*
D03*
X85661D02*
D03*
X83693D02*
D03*
X81724D02*
D03*
D22*
X93043Y95563D02*
D03*
Y97531D02*
D03*
Y99500D02*
D03*
Y101469D02*
D03*
Y103437D02*
D03*
X78280D02*
D03*
Y101469D02*
D03*
Y99500D02*
D03*
Y97531D02*
D03*
Y95563D02*
D03*
D23*
X85661Y99500D02*
D03*
D24*
X121800Y99000D02*
D03*
Y107661D02*
D03*
X115501Y99000D02*
D03*
Y107661D02*
D03*
D25*
X91224Y156953D02*
D03*
D26*
X86500Y158429D02*
D03*
X81776D02*
D03*
X91224Y149571D02*
D03*
X86500D02*
D03*
X81776D02*
D03*
D27*
X14000Y200768D02*
D03*
Y194768D02*
D03*
X148500Y106000D02*
D03*
Y112000D02*
D03*
X158000Y106000D02*
D03*
Y112000D02*
D03*
D28*
X32240Y201461D02*
D03*
X24760D02*
D03*
X28500Y192602D02*
D03*
D29*
X14000Y183728D02*
D03*
Y187272D02*
D03*
X28500Y184272D02*
D03*
Y180728D02*
D03*
X141000Y112000D02*
D03*
Y108457D02*
D03*
X44500Y22957D02*
D03*
Y26500D02*
D03*
D30*
X9665Y143067D02*
D03*
Y128500D02*
D03*
X32500Y143067D02*
D03*
Y128500D02*
D03*
D31*
X21617Y122500D02*
D03*
X25554D02*
D03*
X14482Y103000D02*
D03*
X18419D02*
D03*
X25555D02*
D03*
X29492D02*
D03*
X135000Y174500D02*
D03*
X138937D02*
D03*
X143437Y133968D02*
D03*
X139500D02*
D03*
X108390Y26500D02*
D03*
X104453D02*
D03*
X25469Y27500D02*
D03*
X21531D02*
D03*
X54295Y26500D02*
D03*
X50358D02*
D03*
X79953Y238500D02*
D03*
X83890D02*
D03*
Y234469D02*
D03*
X87827D02*
D03*
X91764Y230469D02*
D03*
X87827D02*
D03*
X83890Y217500D02*
D03*
X87827D02*
D03*
X97228Y216000D02*
D03*
X93291D02*
D03*
X77606Y200500D02*
D03*
X81543D02*
D03*
X77606Y204500D02*
D03*
X81543D02*
D03*
X108031Y178969D02*
D03*
X111969D02*
D03*
X95468Y169850D02*
D03*
X91531D02*
D03*
X88532Y127500D02*
D03*
X92469D02*
D03*
X80532Y127500D02*
D03*
X84469D02*
D03*
X84531Y123000D02*
D03*
X88468D02*
D03*
X68968Y110000D02*
D03*
X65031D02*
D03*
X68968Y99500D02*
D03*
X65031D02*
D03*
X100531Y101469D02*
D03*
X104469D02*
D03*
D32*
X22772Y172000D02*
D03*
X19228D02*
D03*
Y162000D02*
D03*
X22772D02*
D03*
X14228Y47500D02*
D03*
X17772D02*
D03*
X17772Y52000D02*
D03*
X14228D02*
D03*
X142000Y96500D02*
D03*
X145543D02*
D03*
X147799Y44500D02*
D03*
X144256D02*
D03*
X68779Y27468D02*
D03*
X72323D02*
D03*
X68779Y40968D02*
D03*
X72323D02*
D03*
X68779Y31969D02*
D03*
X72323D02*
D03*
X68779Y36468D02*
D03*
X72323D02*
D03*
X62772Y186279D02*
D03*
X59228D02*
D03*
X59228Y181500D02*
D03*
X62772D02*
D03*
X106772Y183721D02*
D03*
X103228D02*
D03*
X68772Y106000D02*
D03*
X65228D02*
D03*
X59228Y176500D02*
D03*
X62772D02*
D03*
D33*
X21617Y98019D02*
D03*
X23586D02*
D03*
X25555D02*
D03*
Y87981D02*
D03*
X23586D02*
D03*
X21617D02*
D03*
D34*
X28754Y96938D02*
D03*
Y94969D02*
D03*
Y93000D02*
D03*
Y91031D02*
D03*
Y89062D02*
D03*
X18419D02*
D03*
Y91031D02*
D03*
Y93000D02*
D03*
Y94969D02*
D03*
Y96938D02*
D03*
D35*
X12907Y108000D02*
D03*
X18419D02*
D03*
X25555D02*
D03*
X31067D02*
D03*
X135000Y188500D02*
D03*
X140512D02*
D03*
X83012Y21000D02*
D03*
X77500D02*
D03*
X143244Y53740D02*
D03*
X148756D02*
D03*
X102543Y22000D02*
D03*
X108055D02*
D03*
X55870Y21500D02*
D03*
X50358D02*
D03*
X93291Y201000D02*
D03*
X87779D02*
D03*
D36*
X135000Y182905D02*
D03*
Y178969D02*
D03*
Y133968D02*
D03*
Y130032D02*
D03*
X30673Y74094D02*
D03*
Y78031D02*
D03*
X68779Y51484D02*
D03*
Y55421D02*
D03*
X83890Y246468D02*
D03*
Y242531D02*
D03*
X87827Y225969D02*
D03*
Y222031D02*
D03*
X93291Y211469D02*
D03*
Y207531D02*
D03*
X87827Y211469D02*
D03*
Y207531D02*
D03*
X111969Y197031D02*
D03*
Y200969D02*
D03*
X107500Y197031D02*
D03*
Y200969D02*
D03*
X103228Y197031D02*
D03*
Y200969D02*
D03*
X71000Y188839D02*
D03*
Y192776D02*
D03*
X103228D02*
D03*
Y188839D02*
D03*
X103228Y178969D02*
D03*
Y175031D02*
D03*
X86500Y165913D02*
D03*
Y169850D02*
D03*
Y138531D02*
D03*
Y142469D02*
D03*
X90500Y132032D02*
D03*
Y135968D02*
D03*
X82500Y132032D02*
D03*
Y135968D02*
D03*
X97000Y127532D02*
D03*
Y131468D02*
D03*
X84500Y114532D02*
D03*
Y118468D02*
D03*
X79575Y114532D02*
D03*
Y118468D02*
D03*
X88500Y114532D02*
D03*
Y118468D02*
D03*
X95000Y114532D02*
D03*
Y118468D02*
D03*
X108500Y105431D02*
D03*
Y109369D02*
D03*
Y97469D02*
D03*
Y93532D02*
D03*
X93732Y80032D02*
D03*
Y83969D02*
D03*
X89468Y80032D02*
D03*
Y83969D02*
D03*
X81543Y213469D02*
D03*
Y209531D02*
D03*
D37*
X120800Y74055D02*
D03*
Y80945D02*
D03*
X99394Y61055D02*
D03*
Y67945D02*
D03*
D38*
X147000Y88957D02*
D03*
X142000D02*
D03*
X137000D02*
D03*
X132000D02*
D03*
X147000Y67500D02*
D03*
X142000D02*
D03*
X137000D02*
D03*
X132000D02*
D03*
D39*
X139500Y78228D02*
D03*
D40*
X158000Y62874D02*
D03*
Y47126D02*
D03*
D41*
X132224Y46260D02*
D03*
Y53740D02*
D03*
X122776Y50000D02*
D03*
D42*
X147799Y36217D02*
D03*
X136382D02*
D03*
D43*
X99394Y37791D02*
D03*
X100969D02*
D03*
X102543D02*
D03*
X99394Y36217D02*
D03*
X102543D02*
D03*
Y34642D02*
D03*
X99394Y33067D02*
D03*
X100969D02*
D03*
X102543D02*
D03*
X100969Y34642D02*
D03*
Y36217D02*
D03*
X99394Y34642D02*
D03*
D44*
Y52626D02*
D03*
X105299D02*
D03*
X99394Y44500D02*
D03*
X105299D02*
D03*
D45*
X86000Y39760D02*
D03*
Y29524D02*
D03*
D46*
X112500Y38256D02*
D03*
Y32744D02*
D03*
X73996Y55421D02*
D03*
Y49909D02*
D03*
D47*
X136382Y21485D02*
D03*
X138941D02*
D03*
X141500D02*
D03*
X144059D02*
D03*
X146618D02*
D03*
D48*
X110000Y10000D02*
D03*
X95000D02*
D03*
X77500D02*
D03*
X62400D02*
D03*
X83890Y254500D02*
D03*
D49*
X52327Y34555D02*
D03*
X50358D02*
D03*
X48390D02*
D03*
X46421D02*
D03*
X44453D02*
D03*
X42484D02*
D03*
X40516D02*
D03*
X38547D02*
D03*
X36579D02*
D03*
X34610D02*
D03*
X32642D02*
D03*
X30673D02*
D03*
Y66445D02*
D03*
X32642D02*
D03*
X34610D02*
D03*
X36579D02*
D03*
X38547D02*
D03*
X40516D02*
D03*
X42484D02*
D03*
X44453D02*
D03*
X46421D02*
D03*
X48390D02*
D03*
X50358D02*
D03*
X52327D02*
D03*
D50*
X25555Y39673D02*
D03*
Y41642D02*
D03*
Y43610D02*
D03*
Y45579D02*
D03*
Y47547D02*
D03*
Y49516D02*
D03*
Y51484D02*
D03*
Y53453D02*
D03*
Y55421D02*
D03*
Y57390D02*
D03*
Y59358D02*
D03*
Y61327D02*
D03*
X57445D02*
D03*
Y59358D02*
D03*
Y57390D02*
D03*
Y55421D02*
D03*
Y53453D02*
D03*
Y51484D02*
D03*
Y49516D02*
D03*
Y47547D02*
D03*
Y45579D02*
D03*
Y43610D02*
D03*
Y41642D02*
D03*
Y39673D02*
D03*
D51*
X74047Y260405D02*
D03*
X93732D02*
D03*
D52*
X86500Y185000D02*
D03*
D53*
X93685Y188839D02*
D03*
Y186279D02*
D03*
Y183721D02*
D03*
Y181161D02*
D03*
X79315D02*
D03*
Y183721D02*
D03*
Y186279D02*
D03*
Y188839D02*
D03*
D54*
X90339Y177815D02*
D03*
X87779D02*
D03*
X85220D02*
D03*
X82661D02*
D03*
Y192185D02*
D03*
X85220D02*
D03*
X87779D02*
D03*
X90339D02*
D03*
D100*
X109394Y161000D02*
D03*
X59000D02*
D03*
D101*
X10500Y172000D02*
D03*
Y162000D02*
D03*
X6500Y58000D02*
D03*
Y48000D02*
D03*
X45000Y10500D02*
D03*
X35000D02*
D03*
X25000D02*
D03*
D102*
X10500Y152000D02*
D03*
X6500Y38000D02*
D03*
D103*
X15000Y10500D02*
D03*
D104*
X133429Y18139D02*
D03*
X149571D02*
D03*
D105*
X155575Y9674D02*
D03*
X127425D02*
D03*
Y23257D02*
D03*
X155575D02*
D03*
M02*
