G04*
G04 #@! TF.GenerationSoftware,Altium Limited,Altium Designer,19.0.4 (130)*
G04*
G04 Layer_Color=32768*
%FSLAX25Y25*%
%MOIN*%
G70*
G01*
G75*
%ADD12C,0.00394*%
%ADD14C,0.00600*%
%ADD126C,0.00197*%
G36*
X30984Y86094D02*
X16188D01*
Y99906D01*
X30984D01*
Y86094D01*
D02*
G37*
D12*
X21610Y204709D02*
X35390D01*
X21610Y189354D02*
X35390D01*
Y204709D01*
X21610Y189354D02*
Y204709D01*
X28500Y195063D02*
Y199000D01*
X26531Y197031D02*
X30468D01*
X12917Y185500D02*
X15083D01*
X14000Y184417D02*
Y186583D01*
X27417Y182500D02*
X29583D01*
X28500Y181417D02*
Y183583D01*
X20042Y121122D02*
Y123878D01*
X27129Y121122D02*
Y123878D01*
X20042D02*
X27129D01*
X20042Y121122D02*
X27129D01*
X22404Y122500D02*
X24767D01*
X23586Y121319D02*
Y123681D01*
X21000Y170917D02*
Y173083D01*
X19917Y172000D02*
X22083D01*
X21000Y160917D02*
Y163083D01*
X19917Y162000D02*
X22083D01*
X12907Y101622D02*
Y104378D01*
X19993Y101622D02*
Y104378D01*
X12907D02*
X19993D01*
X12907Y101622D02*
X19993D01*
X15269Y103000D02*
X17631D01*
X16450Y101819D02*
Y104181D01*
X15663Y106130D02*
Y109870D01*
X13793Y108000D02*
X17533D01*
X10938Y110165D02*
X20387D01*
X10938Y105835D02*
X20387D01*
X10938D02*
Y110165D01*
X20387Y105835D02*
Y110165D01*
X23980Y101622D02*
Y104378D01*
X31067Y101622D02*
Y104378D01*
X23980D02*
X31067D01*
X23980Y101622D02*
X31067D01*
X26342Y103000D02*
X28705D01*
X27524Y101819D02*
Y104181D01*
X28311Y106130D02*
Y109870D01*
X26441Y108000D02*
X30181D01*
X23587Y110165D02*
X33035D01*
X23587Y105835D02*
X33035D01*
X23587D02*
Y110165D01*
X33035Y105835D02*
Y110165D01*
X16000Y46417D02*
Y48583D01*
X14917Y47500D02*
X17083D01*
X16000Y50917D02*
Y53083D01*
X14917Y52000D02*
X17083D01*
X137756Y186630D02*
Y190370D01*
X135886Y188500D02*
X139626D01*
X133031Y190665D02*
X142480D01*
X133031Y186335D02*
X142480D01*
X133031D02*
Y190665D01*
X142480Y186335D02*
Y190665D01*
X133622Y184480D02*
X136378D01*
X133622Y177394D02*
X136378D01*
Y184480D01*
X133622Y177394D02*
Y184480D01*
X135000Y179756D02*
Y182118D01*
X133819Y180937D02*
X136181D01*
X133425Y173122D02*
Y175878D01*
X140512Y173122D02*
Y175878D01*
X133425D02*
X140512D01*
X133425Y173122D02*
X140512D01*
X135787Y174500D02*
X138150D01*
X136969Y173319D02*
Y175681D01*
X120800Y75532D02*
Y79469D01*
X118832Y77500D02*
X122768D01*
X133622Y135543D02*
X136378D01*
X133622Y128457D02*
X136378D01*
Y135543D01*
X133622Y128457D02*
Y135543D01*
X135000Y130819D02*
Y133181D01*
X133819Y132000D02*
X136181D01*
X145012Y132591D02*
Y135346D01*
X137925Y132591D02*
Y135346D01*
Y132591D02*
X145012D01*
X137925Y135346D02*
X145012D01*
X140287Y133968D02*
X142650D01*
X141469Y132787D02*
Y135150D01*
X80256Y19130D02*
Y22870D01*
X78386Y21000D02*
X82126D01*
X75532Y18835D02*
X84980D01*
X75532Y23165D02*
X84980D01*
Y18835D02*
Y23165D01*
X75532Y18835D02*
Y23165D01*
X143772Y95417D02*
Y97583D01*
X142689Y96500D02*
X144854D01*
X139917Y110228D02*
X142083D01*
X141000Y109146D02*
Y111311D01*
X146000Y51870D02*
Y55610D01*
X144130Y53740D02*
X147870D01*
X141276Y55905D02*
X150724D01*
X141276Y51575D02*
X150724D01*
X141276D02*
Y55905D01*
X150724Y51575D02*
Y55905D01*
X158000Y53031D02*
Y56968D01*
X156032Y55000D02*
X159968D01*
X125531Y50000D02*
X129469D01*
X127500Y48031D02*
Y51968D01*
X146028Y43417D02*
Y45583D01*
X144945Y44500D02*
X147110D01*
X43417Y24728D02*
X45583D01*
X44500Y23646D02*
Y25811D01*
X99394Y62532D02*
Y66469D01*
X97425Y64500D02*
X101362D01*
X142091Y34248D02*
Y38185D01*
X140122Y36217D02*
X144059D01*
X102346Y50657D02*
Y54594D01*
X100378Y52626D02*
X104315D01*
X96835Y55776D02*
X107858D01*
X96835Y49476D02*
X107858D01*
X96835D02*
Y55776D01*
X107858Y49476D02*
Y55776D01*
X102346Y42531D02*
Y46468D01*
X100378Y44500D02*
X104315D01*
X96835Y47650D02*
X107858D01*
X96835Y41350D02*
X107858D01*
X96835D02*
Y47650D01*
X107858Y41350D02*
Y47650D01*
X110630Y35500D02*
X114370D01*
X112500Y33630D02*
Y37370D01*
X114665Y30776D02*
Y40224D01*
X110335Y30776D02*
Y40224D01*
X114665D01*
X110335Y30776D02*
X114665D01*
X105299Y20130D02*
Y23870D01*
X103429Y22000D02*
X107169D01*
X100575Y24165D02*
X110024D01*
X100575Y19835D02*
X110024D01*
X100575D02*
Y24165D01*
X110024Y19835D02*
Y24165D01*
X109965Y25122D02*
Y27878D01*
X102878Y25122D02*
Y27878D01*
Y25122D02*
X109965D01*
X102878Y27878D02*
X109965D01*
X105240Y26500D02*
X107602D01*
X106421Y25319D02*
Y27681D01*
X70551Y26386D02*
Y28551D01*
X69468Y27468D02*
X71634D01*
X70551Y39886D02*
Y42051D01*
X69468Y40968D02*
X71634D01*
X70551Y30886D02*
Y33051D01*
X69468Y31969D02*
X71634D01*
X70551Y35386D02*
Y37551D01*
X69468Y36468D02*
X71634D01*
X29295Y72520D02*
X32051D01*
X29295Y79606D02*
X32051D01*
X29295Y72520D02*
Y79606D01*
X32051Y72520D02*
Y79606D01*
X30673Y74882D02*
Y77244D01*
X29492Y76063D02*
X31854D01*
X41500Y48531D02*
Y52469D01*
X39531Y50500D02*
X43468D01*
X27043Y26122D02*
Y28878D01*
X19957Y26122D02*
Y28878D01*
Y26122D02*
X27043D01*
X19957Y28878D02*
X27043D01*
X22319Y27500D02*
X24681D01*
X23500Y26319D02*
Y28681D01*
X53114Y19630D02*
Y23370D01*
X51244Y21500D02*
X54984D01*
X48390Y19335D02*
X57839D01*
X48390Y23665D02*
X57839D01*
Y19335D02*
Y23665D01*
X48390Y19335D02*
Y23665D01*
X55870Y25122D02*
Y27878D01*
X48783Y25122D02*
Y27878D01*
Y25122D02*
X55870D01*
X48783Y27878D02*
X55870D01*
X51146Y26500D02*
X53508D01*
X52327Y25319D02*
Y27681D01*
X72126Y52665D02*
X75866D01*
X73996Y50795D02*
Y54535D01*
X76161Y47941D02*
Y57390D01*
X71831Y47941D02*
Y57390D01*
X76161D01*
X71831Y47941D02*
X76161D01*
X67402Y49909D02*
X70157D01*
X67402Y56996D02*
X70157D01*
X67402Y49909D02*
Y56996D01*
X70157Y49909D02*
Y56996D01*
X68779Y52272D02*
Y54634D01*
X67598Y53453D02*
X69961D01*
X82512Y248043D02*
X85268D01*
X82512Y240957D02*
X85268D01*
Y248043D01*
X82512Y240957D02*
Y248043D01*
X83890Y243319D02*
Y245681D01*
X82709Y244500D02*
X85071D01*
X78378Y237122D02*
Y239878D01*
X85465Y237122D02*
Y239878D01*
X78378D02*
X85465D01*
X78378Y237122D02*
X85465D01*
X80740Y238500D02*
X83102D01*
X81921Y237319D02*
Y239681D01*
X82315Y233091D02*
Y235846D01*
X89402Y233091D02*
Y235846D01*
X82315D02*
X89402D01*
X82315Y233091D02*
X89402D01*
X84677Y234469D02*
X87039D01*
X85858Y233287D02*
Y235650D01*
X93339Y229090D02*
Y231846D01*
X86252Y229090D02*
Y231846D01*
Y229090D02*
X93339D01*
X86252Y231846D02*
X93339D01*
X88614Y230469D02*
X90976D01*
X89795Y229287D02*
Y231650D01*
X86449Y227543D02*
X89205D01*
X86449Y220457D02*
X89205D01*
Y227543D01*
X86449Y220457D02*
Y227543D01*
X87827Y222819D02*
Y225181D01*
X86646Y224000D02*
X89008D01*
X82315Y216122D02*
Y218878D01*
X89402Y216122D02*
Y218878D01*
X82315D02*
X89402D01*
X82315Y216122D02*
X89402D01*
X84677Y217500D02*
X87039D01*
X85858Y216319D02*
Y218681D01*
X98803Y214622D02*
Y217378D01*
X91716Y214622D02*
Y217378D01*
Y214622D02*
X98803D01*
X91716Y217378D02*
X98803D01*
X94079Y216000D02*
X96441D01*
X95260Y214819D02*
Y217181D01*
X91913Y213043D02*
X94669D01*
X91913Y205957D02*
X94669D01*
Y213043D01*
X91913Y205957D02*
Y213043D01*
X93291Y208319D02*
Y210681D01*
X92110Y209500D02*
X94472D01*
X86449Y213043D02*
X89205D01*
X86449Y205957D02*
X89205D01*
Y213043D01*
X86449Y205957D02*
Y213043D01*
X87827Y208319D02*
Y210681D01*
X86646Y209500D02*
X89008D01*
X76032Y199122D02*
Y201878D01*
X83118Y199122D02*
Y201878D01*
X76032D02*
X83118D01*
X76032Y199122D02*
X83118D01*
X78394Y200500D02*
X80756D01*
X79575Y199319D02*
Y201681D01*
X76032Y203122D02*
Y205878D01*
X83118Y203122D02*
Y205878D01*
X76032D02*
X83118D01*
X76032Y203122D02*
X83118D01*
X78394Y204500D02*
X80756D01*
X79575Y203319D02*
Y205681D01*
X90535Y199130D02*
Y202870D01*
X88665Y201000D02*
X92405D01*
X85811Y198835D02*
X95260D01*
X85811Y203165D02*
X95260D01*
Y198835D02*
Y203165D01*
X85811Y198835D02*
Y203165D01*
X110591Y195457D02*
X113347D01*
X110591Y202543D02*
X113347D01*
X110591Y195457D02*
Y202543D01*
X113347Y195457D02*
Y202543D01*
X111969Y197819D02*
Y200181D01*
X110787Y199000D02*
X113150D01*
X106122Y195457D02*
X108878D01*
X106122Y202543D02*
X108878D01*
X106122Y195457D02*
Y202543D01*
X108878Y195457D02*
Y202543D01*
X107500Y197819D02*
Y200181D01*
X106319Y199000D02*
X108681D01*
X101850Y195457D02*
X104606D01*
X101850Y202543D02*
X104606D01*
X101850Y195457D02*
Y202543D01*
X104606Y195457D02*
Y202543D01*
X103228Y197819D02*
Y200181D01*
X102047Y199000D02*
X104409D01*
X69622Y187264D02*
X72378D01*
X69622Y194350D02*
X72378D01*
X69622Y187264D02*
Y194350D01*
X72378Y187264D02*
Y194350D01*
X71000Y189626D02*
Y191988D01*
X69819Y190807D02*
X72181D01*
X61000Y185197D02*
Y187362D01*
X59917Y186279D02*
X62083D01*
X61000Y180417D02*
Y182583D01*
X59917Y181500D02*
X62083D01*
X101850Y194350D02*
X104606D01*
X101850Y187264D02*
X104606D01*
Y194350D01*
X101850Y187264D02*
Y194350D01*
X103228Y189626D02*
Y191988D01*
X102047Y190807D02*
X104409D01*
X105000Y182638D02*
Y184803D01*
X103917Y183721D02*
X106083D01*
X106457Y177591D02*
Y180347D01*
X113543Y177591D02*
Y180347D01*
X106457D02*
X113543D01*
X106457Y177591D02*
X113543D01*
X108819Y178969D02*
X111181D01*
X110000Y177787D02*
Y180150D01*
X101850Y180543D02*
X104606D01*
X101850Y173457D02*
X104606D01*
Y180543D01*
X101850Y173457D02*
Y180543D01*
X103228Y175819D02*
Y178181D01*
X102047Y177000D02*
X104410D01*
X97043Y168473D02*
Y171228D01*
X89957Y168473D02*
Y171228D01*
Y168473D02*
X97043D01*
X89957Y171228D02*
X97043D01*
X92319Y169850D02*
X94681D01*
X93500Y168669D02*
Y171031D01*
X85122Y164339D02*
X87878D01*
X85122Y171425D02*
X87878D01*
X85122Y164339D02*
Y171425D01*
X87878Y164339D02*
Y171425D01*
X86500Y166701D02*
Y169063D01*
X85319Y167882D02*
X87681D01*
X85122Y136957D02*
X87878D01*
X85122Y144043D02*
X87878D01*
X85122Y136957D02*
Y144043D01*
X87878Y136957D02*
Y144043D01*
X86500Y139319D02*
Y141681D01*
X85319Y140500D02*
X87681D01*
X89122Y130457D02*
X91878D01*
X89122Y137543D02*
X91878D01*
X89122Y130457D02*
Y137543D01*
X91878Y130457D02*
Y137543D01*
X90500Y132819D02*
Y135181D01*
X89319Y134000D02*
X91681D01*
X81122Y130457D02*
X83878D01*
X81122Y137543D02*
X83878D01*
X81122Y130457D02*
Y137543D01*
X83878Y130457D02*
Y137543D01*
X82500Y132819D02*
Y135181D01*
X81319Y134000D02*
X83681D01*
X86957Y126122D02*
Y128878D01*
X94043Y126122D02*
Y128878D01*
X86957D02*
X94043D01*
X86957Y126122D02*
X94043D01*
X89319Y127500D02*
X91681D01*
X90500Y126319D02*
Y128681D01*
X95622Y125957D02*
X98378D01*
X95622Y133043D02*
X98378D01*
X95622Y125957D02*
Y133043D01*
X98378Y125957D02*
Y133043D01*
X97000Y128319D02*
Y130681D01*
X95819Y129500D02*
X98181D01*
X78957Y126122D02*
Y128878D01*
X86043Y126122D02*
Y128878D01*
X78957D02*
X86043D01*
X78957Y126122D02*
X86043D01*
X81319Y127500D02*
X83681D01*
X82500Y126319D02*
Y128681D01*
X82957Y121622D02*
Y124378D01*
X90043Y121622D02*
Y124378D01*
X82957D02*
X90043D01*
X82957Y121622D02*
X90043D01*
X85319Y123000D02*
X87681D01*
X86500Y121819D02*
Y124181D01*
X83122Y112957D02*
X85878D01*
X83122Y120043D02*
X85878D01*
X83122Y112957D02*
Y120043D01*
X85878Y112957D02*
Y120043D01*
X84500Y115319D02*
Y117681D01*
X83319Y116500D02*
X85681D01*
X78197Y112957D02*
X80953D01*
X78197Y120043D02*
X80953D01*
X78197Y112957D02*
Y120043D01*
X80953Y112957D02*
Y120043D01*
X79575Y115319D02*
Y117681D01*
X78394Y116500D02*
X80756D01*
X87122Y112957D02*
X89878D01*
X87122Y120043D02*
X89878D01*
X87122Y112957D02*
Y120043D01*
X89878Y112957D02*
Y120043D01*
X88500Y115319D02*
Y117681D01*
X87319Y116500D02*
X89681D01*
X93622Y112957D02*
X96378D01*
X93622Y120043D02*
X96378D01*
X93622Y112957D02*
Y120043D01*
X96378Y112957D02*
Y120043D01*
X95000Y115319D02*
Y117681D01*
X93819Y116500D02*
X96181D01*
X70543Y108622D02*
Y111378D01*
X63457Y108622D02*
Y111378D01*
Y108622D02*
X70543D01*
X63457Y111378D02*
X70543D01*
X65819Y110000D02*
X68181D01*
X67000Y108819D02*
Y111181D01*
X67000Y104917D02*
Y107083D01*
X65917Y106000D02*
X68083D01*
X70543Y98122D02*
Y100878D01*
X63457Y98122D02*
Y100878D01*
Y98122D02*
X70543D01*
X63457Y100878D02*
X70543D01*
X65819Y99500D02*
X68181D01*
X67000Y98319D02*
Y100681D01*
X107122Y103857D02*
X109878D01*
X107122Y110943D02*
X109878D01*
X107122Y103857D02*
Y110943D01*
X109878Y103857D02*
Y110943D01*
X108500Y106219D02*
Y108581D01*
X107319Y107400D02*
X109681D01*
X107122Y99043D02*
X109878D01*
X107122Y91957D02*
X109878D01*
Y99043D01*
X107122Y91957D02*
Y99043D01*
X108500Y94319D02*
Y96681D01*
X107319Y95500D02*
X109681D01*
X98957Y100091D02*
Y102847D01*
X106043Y100091D02*
Y102847D01*
X98957D02*
X106043D01*
X98957Y100091D02*
X106043D01*
X101319Y101469D02*
X103681D01*
X102500Y100287D02*
Y102650D01*
X92354Y78457D02*
X95110D01*
X92354Y85543D02*
X95110D01*
X92354Y78457D02*
Y85543D01*
X95110Y78457D02*
Y85543D01*
X93732Y80819D02*
Y83181D01*
X92551Y82000D02*
X94913D01*
X88090Y78457D02*
X90846D01*
X88090Y85543D02*
X90846D01*
X88090Y78457D02*
Y85543D01*
X90846Y78457D02*
Y85543D01*
X89468Y80819D02*
Y83181D01*
X88287Y82000D02*
X90650D01*
X80165Y215043D02*
X82921D01*
X80165Y207957D02*
X82921D01*
Y215043D01*
X80165Y207957D02*
Y215043D01*
X81543Y210319D02*
Y212681D01*
X80362Y211500D02*
X82724D01*
X61000Y175417D02*
Y177583D01*
X59917Y176500D02*
X62083D01*
D14*
X16188Y86094D02*
X30984D01*
Y99906D01*
X16188D02*
X30984D01*
X16188Y86094D02*
Y99906D01*
D126*
X12228Y181957D02*
Y189043D01*
X15772Y181957D02*
Y189043D01*
X12228Y181957D02*
X15772D01*
X12228Y189043D02*
X15772D01*
X30272Y178957D02*
Y186043D01*
X26728Y178957D02*
Y186043D01*
X30272D01*
X26728Y178957D02*
X30272D01*
X17457Y170228D02*
X24543D01*
X17457Y173772D02*
X24543D01*
Y170228D02*
Y173772D01*
X17457Y170228D02*
Y173772D01*
Y163772D02*
X24543D01*
X17457Y160228D02*
X24543D01*
X17457D02*
Y163772D01*
X24543Y160228D02*
Y163772D01*
X12457Y49272D02*
X19543D01*
X12457Y45728D02*
X19543D01*
X12457D02*
Y49272D01*
X19543Y45728D02*
Y49272D01*
X12457Y50228D02*
X19543D01*
X12457Y53772D02*
X19543D01*
Y50228D02*
Y53772D01*
X12457Y50228D02*
Y53772D01*
X117060Y70807D02*
X124540D01*
X117060Y84193D02*
X124540D01*
X117060Y70807D02*
Y84193D01*
X124540Y70807D02*
Y84193D01*
X140228Y98272D02*
X147315D01*
X140228Y94728D02*
X147315D01*
X140228D02*
Y98272D01*
X147315Y94728D02*
Y98272D01*
X142772Y106685D02*
Y113772D01*
X139228Y106685D02*
Y113772D01*
X142772D01*
X139228Y106685D02*
X142772D01*
X152488Y67205D02*
X163512D01*
X152488Y42795D02*
X163512D01*
Y67205D01*
X152488Y42795D02*
Y67205D01*
X135079Y43110D02*
Y56890D01*
X119921Y43110D02*
Y56890D01*
Y43110D02*
X135079D01*
X119921Y56890D02*
X135079D01*
X142484Y42728D02*
X149571D01*
X142484Y46272D02*
X149571D01*
Y42728D02*
Y46272D01*
X142484Y42728D02*
Y46272D01*
X42728Y21185D02*
Y28272D01*
X46272Y21185D02*
Y28272D01*
X42728Y21185D02*
X46272D01*
X42728Y28272D02*
X46272D01*
X95653Y57807D02*
X103134D01*
X95653Y71193D02*
X103134D01*
X95653Y57807D02*
Y71193D01*
X103134Y57807D02*
Y71193D01*
X133035Y31689D02*
X151146D01*
X133035Y40744D02*
X151146D01*
Y31689D02*
Y40744D01*
X133035Y31689D02*
Y40744D01*
X67008Y29240D02*
X74094D01*
X67008Y25697D02*
X74094D01*
X67008D02*
Y29240D01*
X74094Y25697D02*
Y29240D01*
X67008Y42740D02*
X74094D01*
X67008Y39197D02*
X74094D01*
X67008D02*
Y42740D01*
X74094Y39197D02*
Y42740D01*
X67008Y33740D02*
X74094D01*
X67008Y30197D02*
X74094D01*
X67008D02*
Y33740D01*
X74094Y30197D02*
Y33740D01*
X67008Y38240D02*
X74094D01*
X67008Y34697D02*
X74094D01*
X67008D02*
Y38240D01*
X74094Y34697D02*
Y38240D01*
X21028Y70972D02*
X61972D01*
X21028Y30028D02*
X61972D01*
X21028D02*
Y70972D01*
X61972Y30028D02*
Y70972D01*
X57457Y184508D02*
X64543D01*
X57457Y188051D02*
X64543D01*
Y184508D02*
Y188051D01*
X57457Y184508D02*
Y188051D01*
X57457Y183272D02*
X64543D01*
X57457Y179728D02*
X64543D01*
X57457D02*
Y183272D01*
X64543Y179728D02*
Y183272D01*
X101457Y181949D02*
X108543D01*
X101457Y185492D02*
X108543D01*
Y181949D02*
Y185492D01*
X101457Y181949D02*
Y185492D01*
X63457Y104228D02*
X70543D01*
X63457Y107772D02*
X70543D01*
Y104228D02*
Y107772D01*
X63457Y104228D02*
Y107772D01*
X57457Y178272D02*
X64543D01*
X57457Y174728D02*
X64543D01*
X57457D02*
Y178272D01*
X64543Y174728D02*
Y178272D01*
M02*
