G04*
G04 #@! TF.GenerationSoftware,Altium Limited,Altium Designer,19.0.4 (130)*
G04*
G04 Layer_Color=8388736*
%FSLAX25Y25*%
%MOIN*%
G70*
G01*
G75*
%ADD55R,0.06693X0.14173*%
%ADD56O,0.01784X0.04737*%
%ADD57O,0.04737X0.01784*%
%ADD58R,0.10249X0.10249*%
%ADD59R,0.05524X0.06312*%
%ADD60R,0.03359X0.06902*%
%ADD61R,0.03359X0.03950*%
%ADD62R,0.05400X0.04300*%
%ADD63R,0.03162X0.05328*%
%ADD64R,0.02965X0.02965*%
%ADD65R,0.04737X0.04343*%
%ADD66R,0.03162X0.02769*%
%ADD67R,0.02965X0.02965*%
%ADD68R,0.01784X0.02178*%
%ADD69R,0.02670X0.01784*%
%ADD70R,0.03950X0.04343*%
%ADD71R,0.02769X0.03162*%
%ADD72R,0.06312X0.05328*%
%ADD73O,0.03162X0.06509*%
%ADD74R,0.14225X0.10721*%
%ADD75R,0.08674X0.08674*%
%ADD76R,0.04737X0.03162*%
%ADD77R,0.05524X0.07690*%
%ADD78C,0.01627*%
%ADD79R,0.05131X0.06312*%
%ADD80R,0.07887X0.05131*%
%ADD81R,0.04343X0.03950*%
%ADD82R,0.02375X0.07887*%
%ADD83C,0.08674*%
%ADD84O,0.01981X0.07887*%
%ADD85O,0.07887X0.01981*%
%ADD86R,0.06706X0.16548*%
%ADD87R,0.09304X0.09304*%
%ADD88O,0.05131X0.02178*%
%ADD89O,0.02178X0.05131*%
%ADD90C,0.12611*%
%ADD91C,0.06706*%
%ADD92R,0.06706X0.06706*%
%ADD93R,0.06706X0.06706*%
%ADD94C,0.03241*%
%ADD95O,0.03950X0.07887*%
D55*
X83890Y261587D02*
D03*
D56*
X81724Y92118D02*
D03*
X83693D02*
D03*
X85661D02*
D03*
X87630D02*
D03*
X89598D02*
D03*
Y106882D02*
D03*
X87630D02*
D03*
X85661D02*
D03*
X83693D02*
D03*
X81724D02*
D03*
D57*
X93043Y95563D02*
D03*
Y97531D02*
D03*
Y99500D02*
D03*
Y101469D02*
D03*
Y103437D02*
D03*
X78280D02*
D03*
Y101469D02*
D03*
Y99500D02*
D03*
Y97531D02*
D03*
Y95563D02*
D03*
D58*
X85661Y99500D02*
D03*
D59*
X121800Y99000D02*
D03*
Y107661D02*
D03*
X115501Y99000D02*
D03*
Y107661D02*
D03*
D60*
X91224Y156953D02*
D03*
D61*
X86500Y158429D02*
D03*
X81776D02*
D03*
X91224Y149571D02*
D03*
X86500D02*
D03*
X81776D02*
D03*
D62*
X14000Y200768D02*
D03*
Y194768D02*
D03*
X148500Y106000D02*
D03*
Y112000D02*
D03*
X158000Y106000D02*
D03*
Y112000D02*
D03*
D63*
X32240Y201461D02*
D03*
X24760D02*
D03*
X28500Y192602D02*
D03*
D64*
X14000Y183728D02*
D03*
Y187272D02*
D03*
X28500Y184272D02*
D03*
Y180728D02*
D03*
X141000Y112000D02*
D03*
Y108457D02*
D03*
X44500Y22957D02*
D03*
Y26500D02*
D03*
D65*
X9665Y143067D02*
D03*
Y128500D02*
D03*
X32500Y143067D02*
D03*
Y128500D02*
D03*
D66*
X21617Y122500D02*
D03*
X25554D02*
D03*
X14482Y103000D02*
D03*
X18419D02*
D03*
X25555D02*
D03*
X29492D02*
D03*
X135000Y174500D02*
D03*
X138937D02*
D03*
X143437Y133968D02*
D03*
X139500D02*
D03*
X108390Y26500D02*
D03*
X104453D02*
D03*
X25469Y27500D02*
D03*
X21531D02*
D03*
X54295Y26500D02*
D03*
X50358D02*
D03*
X79953Y238500D02*
D03*
X83890D02*
D03*
Y234469D02*
D03*
X87827D02*
D03*
X91764Y230469D02*
D03*
X87827D02*
D03*
X83890Y217500D02*
D03*
X87827D02*
D03*
X97228Y216000D02*
D03*
X93291D02*
D03*
X77606Y200500D02*
D03*
X81543D02*
D03*
X77606Y204500D02*
D03*
X81543D02*
D03*
X108031Y178969D02*
D03*
X111969D02*
D03*
X95468Y169850D02*
D03*
X91531D02*
D03*
X88532Y127500D02*
D03*
X92469D02*
D03*
X80532Y127500D02*
D03*
X84469D02*
D03*
X84531Y123000D02*
D03*
X88468D02*
D03*
X68968Y110000D02*
D03*
X65031D02*
D03*
X68968Y99500D02*
D03*
X65031D02*
D03*
X100531Y101469D02*
D03*
X104469D02*
D03*
D67*
X22772Y172000D02*
D03*
X19228D02*
D03*
Y162000D02*
D03*
X22772D02*
D03*
X14228Y47500D02*
D03*
X17772D02*
D03*
X17772Y52000D02*
D03*
X14228D02*
D03*
X142000Y96500D02*
D03*
X145543D02*
D03*
X147799Y44500D02*
D03*
X144256D02*
D03*
X68779Y27468D02*
D03*
X72323D02*
D03*
X68779Y40968D02*
D03*
X72323D02*
D03*
X68779Y31969D02*
D03*
X72323D02*
D03*
X68779Y36468D02*
D03*
X72323D02*
D03*
X62772Y186279D02*
D03*
X59228D02*
D03*
X59228Y181500D02*
D03*
X62772D02*
D03*
X106772Y183721D02*
D03*
X103228D02*
D03*
X68772Y106000D02*
D03*
X65228D02*
D03*
X59228Y176500D02*
D03*
X62772D02*
D03*
D68*
X21617Y98019D02*
D03*
X23586D02*
D03*
X25555D02*
D03*
Y87981D02*
D03*
X23586D02*
D03*
X21617D02*
D03*
D69*
X28754Y96938D02*
D03*
Y94969D02*
D03*
Y93000D02*
D03*
Y91031D02*
D03*
Y89062D02*
D03*
X18419D02*
D03*
Y91031D02*
D03*
Y93000D02*
D03*
Y94969D02*
D03*
Y96938D02*
D03*
D70*
X12907Y108000D02*
D03*
X18419D02*
D03*
X25555D02*
D03*
X31067D02*
D03*
X135000Y188500D02*
D03*
X140512D02*
D03*
X83012Y21000D02*
D03*
X77500D02*
D03*
X143244Y53740D02*
D03*
X148756D02*
D03*
X102543Y22000D02*
D03*
X108055D02*
D03*
X55870Y21500D02*
D03*
X50358D02*
D03*
X93291Y201000D02*
D03*
X87779D02*
D03*
D71*
X135000Y182905D02*
D03*
Y178969D02*
D03*
Y133968D02*
D03*
Y130032D02*
D03*
X30673Y74094D02*
D03*
Y78031D02*
D03*
X68779Y51484D02*
D03*
Y55421D02*
D03*
X83890Y246468D02*
D03*
Y242531D02*
D03*
X87827Y225969D02*
D03*
Y222031D02*
D03*
X93291Y211469D02*
D03*
Y207531D02*
D03*
X87827Y211469D02*
D03*
Y207531D02*
D03*
X111969Y197031D02*
D03*
Y200969D02*
D03*
X107500Y197031D02*
D03*
Y200969D02*
D03*
X103228Y197031D02*
D03*
Y200969D02*
D03*
X71000Y188839D02*
D03*
Y192776D02*
D03*
X103228D02*
D03*
Y188839D02*
D03*
X103228Y178969D02*
D03*
Y175031D02*
D03*
X86500Y165913D02*
D03*
Y169850D02*
D03*
Y138531D02*
D03*
Y142469D02*
D03*
X90500Y132032D02*
D03*
Y135968D02*
D03*
X82500Y132032D02*
D03*
Y135968D02*
D03*
X97000Y127532D02*
D03*
Y131468D02*
D03*
X84500Y114532D02*
D03*
Y118468D02*
D03*
X79575Y114532D02*
D03*
Y118468D02*
D03*
X88500Y114532D02*
D03*
Y118468D02*
D03*
X95000Y114532D02*
D03*
Y118468D02*
D03*
X108500Y105431D02*
D03*
Y109369D02*
D03*
Y97469D02*
D03*
Y93532D02*
D03*
X93732Y80032D02*
D03*
Y83969D02*
D03*
X89468Y80032D02*
D03*
Y83969D02*
D03*
X81543Y213469D02*
D03*
Y209531D02*
D03*
D72*
X120800Y74055D02*
D03*
Y80945D02*
D03*
X99394Y61055D02*
D03*
Y67945D02*
D03*
D73*
X147000Y88957D02*
D03*
X142000D02*
D03*
X137000D02*
D03*
X132000D02*
D03*
X147000Y67500D02*
D03*
X142000D02*
D03*
X137000D02*
D03*
X132000D02*
D03*
D74*
X139500Y78228D02*
D03*
D75*
X158000Y62874D02*
D03*
Y47126D02*
D03*
D76*
X132224Y46260D02*
D03*
Y53740D02*
D03*
X122776Y50000D02*
D03*
D77*
X147799Y36217D02*
D03*
X136382D02*
D03*
D78*
X99394Y37791D02*
D03*
X100969D02*
D03*
X102543D02*
D03*
X99394Y36217D02*
D03*
X102543D02*
D03*
Y34642D02*
D03*
X99394Y33067D02*
D03*
X100969D02*
D03*
X102543D02*
D03*
X100969Y34642D02*
D03*
Y36217D02*
D03*
X99394Y34642D02*
D03*
D79*
Y52626D02*
D03*
X105299D02*
D03*
X99394Y44500D02*
D03*
X105299D02*
D03*
D80*
X86000Y39760D02*
D03*
Y29524D02*
D03*
D81*
X112500Y38256D02*
D03*
Y32744D02*
D03*
X73996Y55421D02*
D03*
Y49909D02*
D03*
D82*
X136382Y21485D02*
D03*
X138941D02*
D03*
X141500D02*
D03*
X144059D02*
D03*
X146618D02*
D03*
D83*
X110000Y10000D02*
D03*
X95000D02*
D03*
X77500D02*
D03*
X62400D02*
D03*
X83890Y254500D02*
D03*
D84*
X52327Y34555D02*
D03*
X50358D02*
D03*
X48390D02*
D03*
X46421D02*
D03*
X44453D02*
D03*
X42484D02*
D03*
X40516D02*
D03*
X38547D02*
D03*
X36579D02*
D03*
X34610D02*
D03*
X32642D02*
D03*
X30673D02*
D03*
Y66445D02*
D03*
X32642D02*
D03*
X34610D02*
D03*
X36579D02*
D03*
X38547D02*
D03*
X40516D02*
D03*
X42484D02*
D03*
X44453D02*
D03*
X46421D02*
D03*
X48390D02*
D03*
X50358D02*
D03*
X52327D02*
D03*
D85*
X25555Y39673D02*
D03*
Y41642D02*
D03*
Y43610D02*
D03*
Y45579D02*
D03*
Y47547D02*
D03*
Y49516D02*
D03*
Y51484D02*
D03*
Y53453D02*
D03*
Y55421D02*
D03*
Y57390D02*
D03*
Y59358D02*
D03*
Y61327D02*
D03*
X57445D02*
D03*
Y59358D02*
D03*
Y57390D02*
D03*
Y55421D02*
D03*
Y53453D02*
D03*
Y51484D02*
D03*
Y49516D02*
D03*
Y47547D02*
D03*
Y45579D02*
D03*
Y43610D02*
D03*
Y41642D02*
D03*
Y39673D02*
D03*
D86*
X74047Y260405D02*
D03*
X93732D02*
D03*
D87*
X86500Y185000D02*
D03*
D88*
X93685Y188839D02*
D03*
Y186279D02*
D03*
Y183721D02*
D03*
Y181161D02*
D03*
X79315D02*
D03*
Y183721D02*
D03*
Y186279D02*
D03*
Y188839D02*
D03*
D89*
X90339Y177815D02*
D03*
X87779D02*
D03*
X85220D02*
D03*
X82661D02*
D03*
Y192185D02*
D03*
X85220D02*
D03*
X87779D02*
D03*
X90339D02*
D03*
D90*
X109394Y161000D02*
D03*
X59000D02*
D03*
D91*
X10500Y172000D02*
D03*
Y162000D02*
D03*
X6500Y58000D02*
D03*
Y48000D02*
D03*
X45000Y10500D02*
D03*
X35000D02*
D03*
X25000D02*
D03*
D92*
X10500Y152000D02*
D03*
X6500Y38000D02*
D03*
D93*
X15000Y10500D02*
D03*
D94*
X133429Y18139D02*
D03*
X149571D02*
D03*
D95*
X155575Y9674D02*
D03*
X127425D02*
D03*
Y23257D02*
D03*
X155575D02*
D03*
M02*
