G04*
G04 #@! TF.GenerationSoftware,Altium Limited,Altium Designer,19.0.4 (130)*
G04*
G04 Layer_Color=32896*
%FSLAX25Y25*%
%MOIN*%
G70*
G01*
G75*
%ADD12C,0.00394*%
%ADD126C,0.00197*%
D12*
X85661Y97531D02*
Y101469D01*
X83693Y99500D02*
X87630D01*
X86500Y152032D02*
Y155968D01*
X84531Y154000D02*
X88468D01*
X139500Y76260D02*
Y80197D01*
X137531Y78228D02*
X141469D01*
X100969Y33461D02*
Y37398D01*
X99000Y35429D02*
X102937D01*
X84031Y34642D02*
X87968D01*
X86000Y32673D02*
Y36610D01*
X84531Y185000D02*
X88468D01*
X86500Y183031D02*
Y186969D01*
D126*
X75327Y89165D02*
X95996D01*
X75327Y109835D02*
X95996D01*
X75327Y89165D02*
Y109835D01*
X95996Y89165D02*
Y109835D01*
X79413Y162937D02*
X93587D01*
X79413Y145063D02*
X93587D01*
Y162937D01*
X79413Y145063D02*
Y162937D01*
X128476Y92795D02*
X150524D01*
X128476Y63661D02*
X150524D01*
Y92795D01*
X128476Y63661D02*
Y92795D01*
X97228Y39957D02*
X104709D01*
X97228Y30902D02*
X104709D01*
X97228D02*
Y39957D01*
X104709Y30902D02*
Y39957D01*
X93087Y24898D02*
Y44386D01*
X78913Y24898D02*
Y44386D01*
X93087D01*
X78913Y24898D02*
X93087D01*
X76165Y174665D02*
Y195335D01*
X96835Y174665D02*
Y195335D01*
X76165Y174665D02*
X96835D01*
X76165Y195335D02*
X96835D01*
M02*
