G04*
G04 #@! TF.GenerationSoftware,Altium Limited,Altium Designer,19.0.4 (130)*
G04*
G04 Layer_Physical_Order=3*
G04 Layer_Color=128*
%FSLAX25Y25*%
%MOIN*%
G70*
G01*
G75*
%ADD99C,0.01000*%
%ADD111C,0.04000*%
%ADD112C,0.07543*%
%ADD113C,0.09000*%
%ADD114C,0.06441*%
%ADD115C,0.07937*%
%ADD116C,0.06000*%
%ADD117C,0.05200*%
%ADD118C,0.05000*%
%ADD119R,0.02700X0.02500*%
%ADD120C,0.11874*%
%ADD121C,0.04600*%
%ADD122O,0.05772X0.08921*%
%ADD123C,0.04800*%
%ADD124C,0.04787*%
D99*
X137500Y178000D02*
X167250Y207750D01*
X137500Y177789D02*
Y178000D01*
Y177789D02*
Y178000D01*
X0Y218500D02*
X40500Y178000D01*
Y177500D02*
Y178000D01*
Y152500D02*
Y177500D01*
Y77500D02*
Y152500D01*
Y152500D02*
X137500Y152500D01*
X40500Y77500D02*
X87500D01*
X137500Y127500D02*
Y177789D01*
X87500Y77500D02*
X137500Y127500D01*
X137000Y110500D02*
X167000D01*
X118500Y92000D02*
X137000Y110500D01*
X118500Y64256D02*
Y92000D01*
X131000Y0D02*
Y64256D01*
X130244D02*
X131000D01*
X118500D02*
X130244D01*
X118500Y49382D02*
Y64256D01*
X107618Y38500D02*
X118500Y49382D01*
X87500Y0D02*
Y18382D01*
X99500Y30382D01*
X107618Y38500D01*
D111*
X5000Y272000D02*
G03*
X-0Y267000I-0J-5000D01*
G01*
X167000Y267000D02*
G03*
X162000Y272000I-5000J0D01*
G01*
Y-0D02*
G03*
X167000Y5000I0J5000D01*
G01*
X-0Y5000D02*
G03*
X5000Y0I5000J0D01*
G01*
Y-0D02*
Y0D01*
Y-0D02*
X162000D01*
X167000Y5000D02*
X167000D01*
X167000Y267000D02*
X167000Y5000D01*
X167000Y267000D02*
X167000D01*
X162000Y272000D02*
Y272000D01*
X5000Y272000D02*
X162000D01*
X5000D02*
Y272000D01*
X-0Y5000D02*
Y267000D01*
D112*
X10500Y172000D02*
D03*
Y162000D02*
D03*
Y152000D02*
D03*
X6500Y58000D02*
D03*
Y48000D02*
D03*
Y38000D02*
D03*
X45000Y10500D02*
D03*
X35000D02*
D03*
X25000D02*
D03*
D113*
X77500Y10000D02*
D03*
X62400D02*
D03*
D114*
X133429Y18139D02*
D03*
X149571D02*
D03*
D115*
X83890Y254500D02*
D03*
D116*
X111500Y18500D02*
D03*
X113000Y48126D02*
D03*
X108000Y61000D02*
D03*
X130165Y125000D02*
D03*
X146000Y193988D02*
D03*
X128500Y169500D02*
D03*
X120800Y88300D02*
D03*
X118000Y66000D02*
D03*
D117*
X30673Y82100D02*
D03*
X148756Y49000D02*
D03*
X113000Y26500D02*
D03*
X20539Y201461D02*
D03*
X32500Y137835D02*
D03*
X9665D02*
D03*
X33000Y122500D02*
D03*
X28500Y176000D02*
D03*
X21617Y117500D02*
D03*
X39000Y43500D02*
D03*
X35727Y50703D02*
D03*
X44953Y47547D02*
D03*
X45500Y151500D02*
D03*
X48390Y145000D02*
D03*
X67000Y260500D02*
D03*
X100594Y260405D02*
D03*
X95969Y230469D02*
D03*
X76000Y238500D02*
D03*
X79500Y217500D02*
D03*
X102000Y216000D02*
D03*
X85220Y196780D02*
D03*
X98532Y197031D02*
D03*
X116969D02*
D03*
X108776Y192776D02*
D03*
X111721Y183721D02*
D03*
X91500Y173673D02*
D03*
X81079Y172887D02*
D03*
X106000Y172000D02*
D03*
X99650Y169850D02*
D03*
X76571Y158429D02*
D03*
X76500Y149571D02*
D03*
X96429Y157500D02*
D03*
Y149571D02*
D03*
X76000Y127500D02*
D03*
X75000Y118468D02*
D03*
X73506Y105431D02*
D03*
X61576Y113259D02*
D03*
X61000Y106000D02*
D03*
Y99500D02*
D03*
X101532Y131468D02*
D03*
X98968Y118468D02*
D03*
X73500Y83500D02*
D03*
X108500Y101416D02*
D03*
X85532Y80032D02*
D03*
X35524Y151500D02*
D03*
X40500Y141000D02*
D03*
X38000Y58000D02*
D03*
X35524Y75866D02*
D03*
X16791Y84500D02*
D03*
X33969Y91031D02*
D03*
X31067Y113340D02*
D03*
X34938Y103000D02*
D03*
X12907Y113407D02*
D03*
X10482Y99000D02*
D03*
X21617Y102914D02*
D03*
X34938Y96938D02*
D03*
X10500Y93000D02*
D03*
X41953Y53453D02*
D03*
X11500Y85500D02*
D03*
X19500Y65500D02*
D03*
X72323Y21323D02*
D03*
X81079Y48000D02*
D03*
X21531Y23031D02*
D03*
X53355Y15500D02*
D03*
X145543Y100043D02*
D03*
X137000Y96500D02*
D03*
X155075Y96000D02*
D03*
X137000Y61000D02*
D03*
X160500Y96000D02*
D03*
X142000Y61000D02*
D03*
X154957Y88957D02*
D03*
X139000Y44500D02*
D03*
X146618Y29118D02*
D03*
X118256Y32744D02*
D03*
X52000Y83453D02*
D03*
D118*
X73000Y97469D02*
D03*
D119*
X85650Y99450D02*
D03*
X86477Y185050D02*
D03*
X141650Y78240D02*
D03*
X137350Y78250D02*
D03*
D120*
X109394Y161000D02*
D03*
X59000D02*
D03*
D121*
X100969Y34642D02*
D03*
Y36217D02*
D03*
X99394Y34642D02*
D03*
D122*
X155575Y9674D02*
D03*
X127425D02*
D03*
Y23257D02*
D03*
X155575D02*
D03*
D123*
X153000Y151500D02*
D03*
X152000Y131000D02*
D03*
X140512Y142000D02*
D03*
X146618Y164000D02*
D03*
X117000Y124000D02*
D03*
X125500Y146000D02*
D03*
X133000Y158000D02*
D03*
X111000Y142000D02*
D03*
X58000Y127000D02*
D03*
X66000Y139000D02*
D03*
X55000Y147000D02*
D03*
X70000Y170153D02*
D03*
X149571Y206000D02*
D03*
X129000Y200000D02*
D03*
X134000Y216000D02*
D03*
X149571Y224100D02*
D03*
X147000Y241000D02*
D03*
X129000Y232000D02*
D03*
X110600Y225000D02*
D03*
X106000Y240000D02*
D03*
X125000Y245000D02*
D03*
X148500Y258000D02*
D03*
X131000Y259000D02*
D03*
X113000Y257000D02*
D03*
X63000Y193000D02*
D03*
X46000Y198000D02*
D03*
X58000Y209531D02*
D03*
X43000Y215000D02*
D03*
X18419Y217000D02*
D03*
X32000Y225900D02*
D03*
X67000Y225000D02*
D03*
X52327Y229000D02*
D03*
X12000Y232000D02*
D03*
X47000Y244000D02*
D03*
X25469Y240000D02*
D03*
X33032Y254000D02*
D03*
X64000Y248000D02*
D03*
X48779Y259000D02*
D03*
X16000D02*
D03*
X162000Y121000D02*
D03*
Y128000D02*
D03*
Y135000D02*
D03*
Y142000D02*
D03*
Y149000D02*
D03*
Y156000D02*
D03*
Y163000D02*
D03*
Y170088D02*
D03*
Y177000D02*
D03*
Y184000D02*
D03*
Y191000D02*
D03*
Y198000D02*
D03*
Y205000D02*
D03*
Y212000D02*
D03*
Y219000D02*
D03*
Y226000D02*
D03*
Y233000D02*
D03*
Y240000D02*
D03*
Y247000D02*
D03*
Y254000D02*
D03*
Y261000D02*
D03*
X158000Y267000D02*
D03*
X151000D02*
D03*
X144000D02*
D03*
X137000D02*
D03*
X130032D02*
D03*
X123000D02*
D03*
X116000D02*
D03*
X109000D02*
D03*
X102000D02*
D03*
X5000Y191000D02*
D03*
Y198000D02*
D03*
Y205000D02*
D03*
Y212000D02*
D03*
Y219000D02*
D03*
Y226000D02*
D03*
Y233000D02*
D03*
Y240000D02*
D03*
Y247000D02*
D03*
Y254000D02*
D03*
Y261000D02*
D03*
X61000Y267000D02*
D03*
X54000D02*
D03*
X47000D02*
D03*
X40000D02*
D03*
X33000D02*
D03*
X26000D02*
D03*
X19000D02*
D03*
X12000D02*
D03*
X91100Y165300D02*
D03*
X82100Y167600D02*
D03*
X79315Y123031D02*
D03*
X94700Y123100D02*
D03*
X101532Y126100D02*
D03*
X99200Y136300D02*
D03*
X77900Y132400D02*
D03*
X78280Y137500D02*
D03*
X82100Y140800D02*
D03*
X94800Y139300D02*
D03*
X91400Y143800D02*
D03*
X79000Y144700D02*
D03*
X95900Y162900D02*
D03*
X78700Y163400D02*
D03*
X116300Y210700D02*
D03*
X110600D02*
D03*
X104700D02*
D03*
X98700Y210900D02*
D03*
X72700Y197500D02*
D03*
Y202900D02*
D03*
X73400Y208300D02*
D03*
X76900Y212500D02*
D03*
X98200Y220700D02*
D03*
X92469D02*
D03*
Y225900D02*
D03*
X83000Y224100D02*
D03*
Y229700D02*
D03*
X79200Y233800D02*
D03*
X95969Y236000D02*
D03*
X91100Y238500D02*
D03*
X88532Y243100D02*
D03*
Y248300D02*
D03*
X79400Y243100D02*
D03*
Y248400D02*
D03*
D124*
X83496Y97335D02*
D03*
Y101665D02*
D03*
X87827Y97335D02*
D03*
Y101665D02*
D03*
X139500Y76063D02*
D03*
X143831D02*
D03*
X139500Y80394D02*
D03*
X143831D02*
D03*
X135169D02*
D03*
Y76063D02*
D03*
X84335Y182835D02*
D03*
Y187165D02*
D03*
X88665Y182835D02*
D03*
Y187165D02*
D03*
M02*
