G04*
G04 #@! TF.GenerationSoftware,Altium Limited,Altium Designer,19.0.4 (130)*
G04*
G04 Layer_Color=32768*
%FSLAX25Y25*%
%MOIN*%
G70*
G01*
G75*
%ADD12C,0.00394*%
D12*
X83004Y94874D02*
G03*
X83004Y94874I-1969J0D01*
G01*
X89846Y158429D02*
G03*
X92602Y158429I1378J0D01*
G01*
X85122D02*
G03*
X87878Y158429I1378J0D01*
G01*
X80398D02*
G03*
X83153Y158429I1378J0D01*
G01*
X92602Y149571D02*
G03*
X89846Y149571I-1378J0D01*
G01*
X87878D02*
G03*
X85122Y149571I-1378J0D01*
G01*
X83153D02*
G03*
X80398Y149571I-1378J0D01*
G01*
X147965Y82559D02*
G03*
X147965Y82559I-1969J0D01*
G01*
X93094Y189626D02*
G03*
X93094Y189626I-1969J0D01*
G01*
X77492Y91331D02*
X93831D01*
X77492Y107669D02*
X93831D01*
X77492Y91331D02*
Y107669D01*
X93831Y91331D02*
Y107669D01*
X92602Y149571D02*
Y158429D01*
X87878D02*
X89846D01*
X83153D02*
X85122D01*
X80398Y149571D02*
Y158429D01*
X87878Y149571D02*
X89846D01*
X83153D02*
X85122D01*
X129461Y86102D02*
X149539D01*
X129461Y70354D02*
X149539D01*
Y86102D01*
X129461Y70354D02*
Y86102D01*
X98213Y38972D02*
X103724D01*
X98213Y31886D02*
X103724D01*
X98213D02*
Y38972D01*
X103724Y31886D02*
Y38972D01*
X92102Y28146D02*
Y41138D01*
X79898Y28146D02*
Y41138D01*
X92102D01*
X79898Y28146D02*
X92102D01*
X78331Y176831D02*
Y193169D01*
X94669Y176831D02*
Y193169D01*
X78331Y176831D02*
X94669D01*
X78331Y193169D02*
X94669D01*
M02*
