G04*
G04 #@! TF.GenerationSoftware,Altium Limited,Altium Designer,19.0.4 (130)*
G04*
G04 Layer_Color=2752767*
%FSLAX25Y25*%
%MOIN*%
G70*
G01*
G75*
%ADD10C,0.00098*%
%ADD11C,0.00200*%
%ADD12C,0.00267*%
%ADD13C,0.00133*%
D10*
X84677Y254500D02*
G03*
X84677Y254500I-787J0D01*
G01*
X88024D02*
G03*
X88024Y254500I-4134J0D01*
G01*
D11*
X108594Y160200D02*
Y161800D01*
X110194D01*
Y160200D01*
X108594D01*
X58200D02*
Y161800D01*
X59800D01*
Y160200D01*
X58200D01*
X100969Y33842D02*
X100169Y35442D01*
X101769D01*
X100969Y33842D01*
Y35416D02*
X100169Y37016D01*
X101769D01*
X100969Y35416D01*
X99394Y33842D02*
X98594Y35442D01*
X100194D01*
X99394Y33842D01*
X95000Y9200D02*
X95400Y9600D01*
X95800D01*
X95400Y10000D01*
X95800Y10400D01*
X95400D01*
X95000Y10800D01*
X94600Y10400D01*
X94200D01*
X94600Y10000D01*
X94200Y9600D01*
X94600D01*
X95000Y9200D01*
X77500D02*
X77900Y9600D01*
X78300D01*
X77900Y10000D01*
X78300Y10400D01*
X77900D01*
X77500Y10800D01*
X77100Y10400D01*
X76700D01*
X77100Y10000D01*
X76700Y9600D01*
X77100D01*
X77500Y9200D01*
X62400D02*
X62800Y9600D01*
X63200D01*
X62800Y10000D01*
X63200Y10400D01*
X62800D01*
X62400Y10800D01*
X62000Y10400D01*
X61600D01*
X62000Y10000D01*
X61600Y9600D01*
X62000D01*
X62400Y9200D01*
X132629Y17339D02*
X133029Y18139D01*
X132629Y18939D01*
X133429Y18539D01*
X134229Y18939D01*
X133829Y18139D01*
X134229Y17339D01*
X133429Y17739D01*
X132629Y17339D01*
X148771D02*
X149171Y18139D01*
X148771Y18939D01*
X149571Y18539D01*
X150371Y18939D01*
X149971Y18139D01*
X150371Y17339D01*
X149571Y17739D01*
X148771Y17339D01*
X155175Y9274D02*
Y8874D01*
X155975D01*
Y9274D01*
X156375D01*
Y10074D01*
X155975D01*
Y10474D01*
X155175D01*
Y10074D01*
X154775D01*
Y9274D01*
X155175D01*
X127025D02*
Y8874D01*
X127825D01*
Y9274D01*
X128225D01*
Y10074D01*
X127825D01*
Y10474D01*
X127025D01*
Y10074D01*
X126625D01*
Y9274D01*
X127025D01*
Y22857D02*
Y22457D01*
X127825D01*
Y22857D01*
X128225D01*
Y23657D01*
X127825D01*
Y24057D01*
X127025D01*
Y23657D01*
X126625D01*
Y22857D01*
X127025D01*
X155175D02*
Y22457D01*
X155975D01*
Y22857D01*
X156375D01*
Y23657D01*
X155975D01*
Y24057D01*
X155175D01*
Y23657D01*
X154775D01*
Y22857D01*
X155175D01*
X83090Y253700D02*
X83490D01*
X83890Y254100D01*
X84290Y253700D01*
X84690D01*
Y254100D01*
X84290Y254500D01*
X84690Y254900D01*
Y255300D01*
X84290D01*
X83890Y254900D01*
X83490Y255300D01*
X83090D01*
Y254900D01*
X83490Y254500D01*
X83090Y254100D01*
Y253700D01*
X152200Y151500D02*
X153000Y152300D01*
X153800Y151500D01*
X153000Y150700D01*
X152200Y151500D01*
X151200Y131000D02*
X152000Y131800D01*
X152800Y131000D01*
X152000Y130200D01*
X151200Y131000D01*
X139712Y142000D02*
X140512Y142800D01*
X141312Y142000D01*
X140512Y141200D01*
X139712Y142000D01*
X145818Y164000D02*
X146618Y164800D01*
X147418Y164000D01*
X146618Y163200D01*
X145818Y164000D01*
X116200Y124000D02*
X117000Y124800D01*
X117800Y124000D01*
X117000Y123200D01*
X116200Y124000D01*
X124700Y146000D02*
X125500Y146800D01*
X126300Y146000D01*
X125500Y145200D01*
X124700Y146000D01*
X132200Y158000D02*
X133000Y158800D01*
X133800Y158000D01*
X133000Y157200D01*
X132200Y158000D01*
X110200Y142000D02*
X111000Y142800D01*
X111800Y142000D01*
X111000Y141200D01*
X110200Y142000D01*
X57200Y127000D02*
X58000Y127800D01*
X58800Y127000D01*
X58000Y126200D01*
X57200Y127000D01*
X65200Y139000D02*
X66000Y139800D01*
X66800Y139000D01*
X66000Y138200D01*
X65200Y139000D01*
X54200Y147000D02*
X55000Y147800D01*
X55800Y147000D01*
X55000Y146200D01*
X54200Y147000D01*
X69200Y170153D02*
X70000Y170953D01*
X70800Y170153D01*
X70000Y169353D01*
X69200Y170153D01*
X148771Y206000D02*
X149571Y206800D01*
X150371Y206000D01*
X149571Y205200D01*
X148771Y206000D01*
X128200Y200000D02*
X129000Y200800D01*
X129800Y200000D01*
X129000Y199200D01*
X128200Y200000D01*
X133200Y216000D02*
X134000Y216800D01*
X134800Y216000D01*
X134000Y215200D01*
X133200Y216000D01*
X148771Y224100D02*
X149571Y224900D01*
X150371Y224100D01*
X149571Y223300D01*
X148771Y224100D01*
X146200Y241000D02*
X147000Y241800D01*
X147800Y241000D01*
X147000Y240200D01*
X146200Y241000D01*
X128200Y232000D02*
X129000Y232800D01*
X129800Y232000D01*
X129000Y231200D01*
X128200Y232000D01*
X109800Y225000D02*
X110600Y225800D01*
X111400Y225000D01*
X110600Y224200D01*
X109800Y225000D01*
X105200Y240000D02*
X106000Y240800D01*
X106800Y240000D01*
X106000Y239200D01*
X105200Y240000D01*
X124200Y245000D02*
X125000Y245800D01*
X125800Y245000D01*
X125000Y244200D01*
X124200Y245000D01*
X147700Y258000D02*
X148500Y258800D01*
X149300Y258000D01*
X148500Y257200D01*
X147700Y258000D01*
X130200Y259000D02*
X131000Y259800D01*
X131800Y259000D01*
X131000Y258200D01*
X130200Y259000D01*
X112200Y257000D02*
X113000Y257800D01*
X113800Y257000D01*
X113000Y256200D01*
X112200Y257000D01*
X62200Y193000D02*
X63000Y193800D01*
X63800Y193000D01*
X63000Y192200D01*
X62200Y193000D01*
X45200Y198000D02*
X46000Y198800D01*
X46800Y198000D01*
X46000Y197200D01*
X45200Y198000D01*
X57200Y209531D02*
X58000Y210332D01*
X58800Y209531D01*
X58000Y208732D01*
X57200Y209531D01*
X42200Y215000D02*
X43000Y215800D01*
X43800Y215000D01*
X43000Y214200D01*
X42200Y215000D01*
X17619Y217000D02*
X18419Y217800D01*
X19219Y217000D01*
X18419Y216200D01*
X17619Y217000D01*
X31200Y225900D02*
X32000Y226700D01*
X32800Y225900D01*
X32000Y225100D01*
X31200Y225900D01*
X66200Y225000D02*
X67000Y225800D01*
X67800Y225000D01*
X67000Y224200D01*
X66200Y225000D01*
X51527Y229000D02*
X52327Y229800D01*
X53127Y229000D01*
X52327Y228200D01*
X51527Y229000D01*
X11200Y232000D02*
X12000Y232800D01*
X12800Y232000D01*
X12000Y231200D01*
X11200Y232000D01*
X46200Y244000D02*
X47000Y244800D01*
X47800Y244000D01*
X47000Y243200D01*
X46200Y244000D01*
X24668Y240000D02*
X25469Y240800D01*
X26269Y240000D01*
X25469Y239200D01*
X24668Y240000D01*
X32232Y254000D02*
X33032Y254800D01*
X33832Y254000D01*
X33032Y253200D01*
X32232Y254000D01*
X63200Y248000D02*
X64000Y248800D01*
X64800Y248000D01*
X64000Y247200D01*
X63200Y248000D01*
X47980Y259000D02*
X48779Y259800D01*
X49580Y259000D01*
X48779Y258200D01*
X47980Y259000D01*
X15200D02*
X16000Y259800D01*
X16800Y259000D01*
X16000Y258200D01*
X15200Y259000D01*
X161200Y121000D02*
X162000Y121800D01*
X162800Y121000D01*
X162000Y120200D01*
X161200Y121000D01*
Y128000D02*
X162000Y128800D01*
X162800Y128000D01*
X162000Y127200D01*
X161200Y128000D01*
Y135000D02*
X162000Y135800D01*
X162800Y135000D01*
X162000Y134200D01*
X161200Y135000D01*
Y142000D02*
X162000Y142800D01*
X162800Y142000D01*
X162000Y141200D01*
X161200Y142000D01*
Y149000D02*
X162000Y149800D01*
X162800Y149000D01*
X162000Y148200D01*
X161200Y149000D01*
Y156000D02*
X162000Y156800D01*
X162800Y156000D01*
X162000Y155200D01*
X161200Y156000D01*
Y163000D02*
X162000Y163800D01*
X162800Y163000D01*
X162000Y162200D01*
X161200Y163000D01*
Y170088D02*
X162000Y170888D01*
X162800Y170088D01*
X162000Y169288D01*
X161200Y170088D01*
Y177000D02*
X162000Y177800D01*
X162800Y177000D01*
X162000Y176200D01*
X161200Y177000D01*
Y184000D02*
X162000Y184800D01*
X162800Y184000D01*
X162000Y183200D01*
X161200Y184000D01*
Y191000D02*
X162000Y191800D01*
X162800Y191000D01*
X162000Y190200D01*
X161200Y191000D01*
Y198000D02*
X162000Y198800D01*
X162800Y198000D01*
X162000Y197200D01*
X161200Y198000D01*
Y205000D02*
X162000Y205800D01*
X162800Y205000D01*
X162000Y204200D01*
X161200Y205000D01*
Y212000D02*
X162000Y212800D01*
X162800Y212000D01*
X162000Y211200D01*
X161200Y212000D01*
Y219000D02*
X162000Y219800D01*
X162800Y219000D01*
X162000Y218200D01*
X161200Y219000D01*
Y226000D02*
X162000Y226800D01*
X162800Y226000D01*
X162000Y225200D01*
X161200Y226000D01*
Y233000D02*
X162000Y233800D01*
X162800Y233000D01*
X162000Y232200D01*
X161200Y233000D01*
Y240000D02*
X162000Y240800D01*
X162800Y240000D01*
X162000Y239200D01*
X161200Y240000D01*
Y247000D02*
X162000Y247800D01*
X162800Y247000D01*
X162000Y246200D01*
X161200Y247000D01*
Y254000D02*
X162000Y254800D01*
X162800Y254000D01*
X162000Y253200D01*
X161200Y254000D01*
Y261000D02*
X162000Y261800D01*
X162800Y261000D01*
X162000Y260200D01*
X161200Y261000D01*
X157200Y267000D02*
X158000Y267800D01*
X158800Y267000D01*
X158000Y266200D01*
X157200Y267000D01*
X150200D02*
X151000Y267800D01*
X151800Y267000D01*
X151000Y266200D01*
X150200Y267000D01*
X143200D02*
X144000Y267800D01*
X144800Y267000D01*
X144000Y266200D01*
X143200Y267000D01*
X136200D02*
X137000Y267800D01*
X137800Y267000D01*
X137000Y266200D01*
X136200Y267000D01*
X129232D02*
X130032Y267800D01*
X130832Y267000D01*
X130032Y266200D01*
X129232Y267000D01*
X122200D02*
X123000Y267800D01*
X123800Y267000D01*
X123000Y266200D01*
X122200Y267000D01*
X115200D02*
X116000Y267800D01*
X116800Y267000D01*
X116000Y266200D01*
X115200Y267000D01*
X108200D02*
X109000Y267800D01*
X109800Y267000D01*
X109000Y266200D01*
X108200Y267000D01*
X101200D02*
X102000Y267800D01*
X102800Y267000D01*
X102000Y266200D01*
X101200Y267000D01*
X4200Y191000D02*
X5000Y191800D01*
X5800Y191000D01*
X5000Y190200D01*
X4200Y191000D01*
Y198000D02*
X5000Y198800D01*
X5800Y198000D01*
X5000Y197200D01*
X4200Y198000D01*
Y205000D02*
X5000Y205800D01*
X5800Y205000D01*
X5000Y204200D01*
X4200Y205000D01*
Y212000D02*
X5000Y212800D01*
X5800Y212000D01*
X5000Y211200D01*
X4200Y212000D01*
Y219000D02*
X5000Y219800D01*
X5800Y219000D01*
X5000Y218200D01*
X4200Y219000D01*
Y226000D02*
X5000Y226800D01*
X5800Y226000D01*
X5000Y225200D01*
X4200Y226000D01*
Y233000D02*
X5000Y233800D01*
X5800Y233000D01*
X5000Y232200D01*
X4200Y233000D01*
Y240000D02*
X5000Y240800D01*
X5800Y240000D01*
X5000Y239200D01*
X4200Y240000D01*
Y247000D02*
X5000Y247800D01*
X5800Y247000D01*
X5000Y246200D01*
X4200Y247000D01*
Y254000D02*
X5000Y254800D01*
X5800Y254000D01*
X5000Y253200D01*
X4200Y254000D01*
Y261000D02*
X5000Y261800D01*
X5800Y261000D01*
X5000Y260200D01*
X4200Y261000D01*
X60200Y267000D02*
X61000Y267800D01*
X61800Y267000D01*
X61000Y266200D01*
X60200Y267000D01*
X53200D02*
X54000Y267800D01*
X54800Y267000D01*
X54000Y266200D01*
X53200Y267000D01*
X46200D02*
X47000Y267800D01*
X47800Y267000D01*
X47000Y266200D01*
X46200Y267000D01*
X39200D02*
X40000Y267800D01*
X40800Y267000D01*
X40000Y266200D01*
X39200Y267000D01*
X32200D02*
X33000Y267800D01*
X33800Y267000D01*
X33000Y266200D01*
X32200Y267000D01*
X25200D02*
X26000Y267800D01*
X26800Y267000D01*
X26000Y266200D01*
X25200Y267000D01*
X18200D02*
X19000Y267800D01*
X19800Y267000D01*
X19000Y266200D01*
X18200Y267000D01*
X11200D02*
X12000Y267800D01*
X12800Y267000D01*
X12000Y266200D01*
X11200Y267000D01*
X90300Y165300D02*
X91100Y166100D01*
X91900Y165300D01*
X91100Y164500D01*
X90300Y165300D01*
X81300Y167600D02*
X82100Y168400D01*
X82900Y167600D01*
X82100Y166800D01*
X81300Y167600D01*
X78515Y123031D02*
X79315Y123831D01*
X80115Y123031D01*
X79315Y122231D01*
X78515Y123031D01*
X93900Y123100D02*
X94700Y123900D01*
X95500Y123100D01*
X94700Y122300D01*
X93900Y123100D01*
X100732Y126100D02*
X101532Y126900D01*
X102331Y126100D01*
X101532Y125300D01*
X100732Y126100D01*
X98400Y136300D02*
X99200Y137100D01*
X100000Y136300D01*
X99200Y135500D01*
X98400Y136300D01*
X77100Y132400D02*
X77900Y133200D01*
X78700Y132400D01*
X77900Y131600D01*
X77100Y132400D01*
X77479Y137500D02*
X78280Y138300D01*
X79080Y137500D01*
X78280Y136700D01*
X77479Y137500D01*
X81300Y140800D02*
X82100Y141600D01*
X82900Y140800D01*
X82100Y140000D01*
X81300Y140800D01*
X94000Y139300D02*
X94800Y140100D01*
X95600Y139300D01*
X94800Y138500D01*
X94000Y139300D01*
X90600Y143800D02*
X91400Y144600D01*
X92200Y143800D01*
X91400Y143000D01*
X90600Y143800D01*
X78200Y144700D02*
X79000Y145500D01*
X79800Y144700D01*
X79000Y143900D01*
X78200Y144700D01*
X95100Y162900D02*
X95900Y163700D01*
X96700Y162900D01*
X95900Y162100D01*
X95100Y162900D01*
X77900Y163400D02*
X78700Y164200D01*
X79500Y163400D01*
X78700Y162600D01*
X77900Y163400D01*
X115500Y210700D02*
X116300Y211500D01*
X117100Y210700D01*
X116300Y209900D01*
X115500Y210700D01*
X109800D02*
X110600Y211500D01*
X111400Y210700D01*
X110600Y209900D01*
X109800Y210700D01*
X103900D02*
X104700Y211500D01*
X105500Y210700D01*
X104700Y209900D01*
X103900Y210700D01*
X97900Y210900D02*
X98700Y211700D01*
X99500Y210900D01*
X98700Y210100D01*
X97900Y210900D01*
X71900Y197500D02*
X72700Y198300D01*
X73500Y197500D01*
X72700Y196700D01*
X71900Y197500D01*
Y202900D02*
X72700Y203700D01*
X73500Y202900D01*
X72700Y202100D01*
X71900Y202900D01*
X72600Y208300D02*
X73400Y209100D01*
X74200Y208300D01*
X73400Y207500D01*
X72600Y208300D01*
X76100Y212500D02*
X76900Y213300D01*
X77700Y212500D01*
X76900Y211700D01*
X76100Y212500D01*
X97400Y220700D02*
X98200Y221500D01*
X99000Y220700D01*
X98200Y219900D01*
X97400Y220700D01*
X91668D02*
X92469Y221500D01*
X93269Y220700D01*
X92469Y219900D01*
X91668Y220700D01*
Y225900D02*
X92469Y226700D01*
X93269Y225900D01*
X92469Y225100D01*
X91668Y225900D01*
X82200Y224100D02*
X83000Y224900D01*
X83800Y224100D01*
X83000Y223300D01*
X82200Y224100D01*
Y229700D02*
X83000Y230500D01*
X83800Y229700D01*
X83000Y228900D01*
X82200Y229700D01*
X78400Y233800D02*
X79200Y234600D01*
X80000Y233800D01*
X79200Y233000D01*
X78400Y233800D01*
X95169Y236000D02*
X95969Y236800D01*
X96768Y236000D01*
X95969Y235200D01*
X95169Y236000D01*
X90300Y238500D02*
X91100Y239300D01*
X91900Y238500D01*
X91100Y237700D01*
X90300Y238500D01*
X87731Y243100D02*
X88532Y243900D01*
X89332Y243100D01*
X88532Y242300D01*
X87731Y243100D01*
Y248300D02*
X88532Y249100D01*
X89332Y248300D01*
X88532Y247500D01*
X87731Y248300D01*
X78600Y243100D02*
X79400Y243900D01*
X80200Y243100D01*
X79400Y242300D01*
X78600Y243100D01*
Y248400D02*
X79400Y249200D01*
X80200Y248400D01*
X79400Y247600D01*
X78600Y248400D01*
X82696Y96535D02*
Y98135D01*
X84296D01*
Y96535D01*
X82696D01*
X83096Y96935D02*
Y97735D01*
X83896D01*
Y96935D01*
X83096D01*
X82696Y100865D02*
Y102465D01*
X84296D01*
Y100865D01*
X82696D01*
X83096Y101265D02*
Y102065D01*
X83896D01*
Y101265D01*
X83096D01*
X87027Y96535D02*
Y98135D01*
X88627D01*
Y96535D01*
X87027D01*
X87427Y96935D02*
Y97735D01*
X88227D01*
Y96935D01*
X87427D01*
X87027Y100865D02*
Y102465D01*
X88627D01*
Y100865D01*
X87027D01*
X87427Y101265D02*
Y102065D01*
X88227D01*
Y101265D01*
X87427D01*
X148500Y182106D02*
X147700Y183705D01*
X149300D01*
X148500Y182106D01*
Y182506D02*
X148100Y183306D01*
X148900D01*
X148500Y182506D01*
X111500Y17700D02*
X110700Y19300D01*
X112300D01*
X111500Y17700D01*
Y18100D02*
X111100Y18900D01*
X111900D01*
X111500Y18100D01*
X113000Y47326D02*
X112200Y48926D01*
X113800D01*
X113000Y47326D01*
Y47726D02*
X112600Y48526D01*
X113400D01*
X113000Y47726D01*
X108000Y60200D02*
X107200Y61800D01*
X108800D01*
X108000Y60200D01*
Y60600D02*
X107600Y61400D01*
X108400D01*
X108000Y60600D01*
X130165Y124200D02*
X129365Y125800D01*
X130965D01*
X130165Y124200D01*
Y124600D02*
X129765Y125400D01*
X130565D01*
X130165Y124600D01*
X73000Y96668D02*
X73400Y97069D01*
X73800D01*
X73400Y97469D01*
X73800Y97869D01*
X73400D01*
X73000Y98269D01*
X72600Y97869D01*
X72200D01*
X72600Y97469D01*
X72200Y97069D01*
X72600D01*
X73000Y96668D01*
Y97069D02*
X73200Y97268D01*
X73400D01*
X73200Y97469D01*
X73400Y97668D01*
X73200D01*
X73000Y97869D01*
X72800Y97668D01*
X72600D01*
X72800Y97469D01*
X72600Y97268D01*
X72800D01*
X73000Y97069D01*
X146000Y193188D02*
X145200Y194788D01*
X146800D01*
X146000Y193188D01*
Y193588D02*
X145600Y194388D01*
X146400D01*
X146000Y193588D01*
X127894Y187700D02*
X127094Y189300D01*
X128694D01*
X127894Y187700D01*
Y188100D02*
X127494Y188900D01*
X128294D01*
X127894Y188100D01*
Y178168D02*
X127094Y179769D01*
X128694D01*
X127894Y178168D01*
Y178568D02*
X127494Y179368D01*
X128294D01*
X127894Y178568D01*
X128500Y168700D02*
X127700Y170300D01*
X129300D01*
X128500Y168700D01*
Y169100D02*
X128100Y169900D01*
X128900D01*
X128500Y169100D01*
X146000Y173700D02*
X145200Y175300D01*
X146800D01*
X146000Y173700D01*
Y174100D02*
X145600Y174900D01*
X146400D01*
X146000Y174100D01*
X107000Y74700D02*
X106200Y76300D01*
X107800D01*
X107000Y74700D01*
Y75100D02*
X106600Y75900D01*
X107400D01*
X107000Y75100D01*
X130032Y133168D02*
X129232Y134768D01*
X130832D01*
X130032Y133168D01*
Y133569D02*
X129631Y134369D01*
X130431D01*
X130032Y133569D01*
X143437Y127263D02*
X142637Y128863D01*
X144237D01*
X143437Y127263D01*
Y127663D02*
X143037Y128463D01*
X143837D01*
X143437Y127663D01*
X120800Y87500D02*
X120000Y89100D01*
X121600D01*
X120800Y87500D01*
Y87900D02*
X120400Y88700D01*
X121200D01*
X120800Y87900D01*
X118000Y65200D02*
X117200Y66800D01*
X118800D01*
X118000Y65200D01*
Y65600D02*
X117600Y66400D01*
X118400D01*
X118000Y65600D01*
X138700Y75263D02*
Y76863D01*
X140300D01*
Y75263D01*
X138700D01*
X139100Y75663D02*
Y76463D01*
X139900D01*
Y75663D01*
X139100D01*
X143031Y75263D02*
Y76863D01*
X144631D01*
Y75263D01*
X143031D01*
X143431Y75663D02*
Y76463D01*
X144231D01*
Y75663D01*
X143431D01*
X138700Y79594D02*
Y81194D01*
X140300D01*
Y79594D01*
X138700D01*
X139100Y79994D02*
Y80794D01*
X139900D01*
Y79994D01*
X139100D01*
X143031Y79594D02*
Y81194D01*
X144631D01*
Y79594D01*
X143031D01*
X143431Y79994D02*
Y80794D01*
X144231D01*
Y79994D01*
X143431D01*
X134369Y79594D02*
Y81194D01*
X135969D01*
Y79594D01*
X134369D01*
X134769Y79994D02*
Y80794D01*
X135569D01*
Y79994D01*
X134769D01*
X134369Y75263D02*
Y76863D01*
X135969D01*
Y75263D01*
X134369D01*
X134769Y75663D02*
Y76463D01*
X135569D01*
Y75663D01*
X134769D01*
X104500Y29640D02*
X104900Y30040D01*
X105300D01*
X104900Y30440D01*
X105300Y30840D01*
X104900D01*
X104500Y31240D01*
X104100Y30840D01*
X103700D01*
X104100Y30440D01*
X103700Y30040D01*
X104100D01*
X104500Y29640D01*
Y30040D02*
X104700Y30240D01*
X104900D01*
X104700Y30440D01*
X104900Y30640D01*
X104700D01*
X104500Y30840D01*
X104300Y30640D01*
X104100D01*
X104300Y30440D01*
X104100Y30240D01*
X104300D01*
X104500Y30040D01*
X108300Y33842D02*
X108700Y34242D01*
X109100D01*
X108700Y34642D01*
X109100Y35042D01*
X108700D01*
X108300Y35442D01*
X107900Y35042D01*
X107500D01*
X107900Y34642D01*
X107500Y34242D01*
X107900D01*
X108300Y33842D01*
Y34242D02*
X108500Y34442D01*
X108700D01*
X108500Y34642D01*
X108700Y34842D01*
X108500D01*
X108300Y35042D01*
X108100Y34842D01*
X107900D01*
X108100Y34642D01*
X107900Y34442D01*
X108100D01*
X108300Y34242D01*
X100000Y25700D02*
X100400Y26100D01*
X100800D01*
X100400Y26500D01*
X100800Y26900D01*
X100400D01*
X100000Y27300D01*
X99600Y26900D01*
X99200D01*
X99600Y26500D01*
X99200Y26100D01*
X99600D01*
X100000Y25700D01*
Y26100D02*
X100200Y26300D01*
X100400D01*
X100200Y26500D01*
X100400Y26700D01*
X100200D01*
X100000Y26900D01*
X99800Y26700D01*
X99600D01*
X99800Y26500D01*
X99600Y26300D01*
X99800D01*
X100000Y26100D01*
X95500Y19200D02*
X94700Y20800D01*
X96300D01*
X95500Y19200D01*
Y19600D02*
X95100Y20400D01*
X95900D01*
X95500Y19600D01*
X83535Y182035D02*
Y183635D01*
X85135D01*
Y182035D01*
X83535D01*
X83935Y182435D02*
Y183235D01*
X84735D01*
Y182435D01*
X83935D01*
X83535Y186365D02*
Y187965D01*
X85135D01*
Y186365D01*
X83535D01*
X83935Y186765D02*
Y187565D01*
X84735D01*
Y186765D01*
X83935D01*
X87865Y182035D02*
Y183635D01*
X89465D01*
Y182035D01*
X87865D01*
X88265Y182435D02*
Y183235D01*
X89065D01*
Y182435D01*
X88265D01*
X87865Y186365D02*
Y187965D01*
X89465D01*
Y186365D01*
X87865D01*
X88265Y186765D02*
Y187565D01*
X89065D01*
Y186765D01*
X88265D01*
D12*
X11300Y172000D02*
G03*
X11300Y172000I-800J0D01*
G01*
Y162000D02*
G03*
X11300Y162000I-800J0D01*
G01*
Y152000D02*
G03*
X11300Y152000I-800J0D01*
G01*
X7300Y58000D02*
G03*
X7300Y58000I-800J0D01*
G01*
Y48000D02*
G03*
X7300Y48000I-800J0D01*
G01*
Y38000D02*
G03*
X7300Y38000I-800J0D01*
G01*
X45800Y10500D02*
G03*
X45800Y10500I-800J0D01*
G01*
X35800D02*
G03*
X35800Y10500I-800J0D01*
G01*
X25800D02*
G03*
X25800Y10500I-800J0D01*
G01*
X15800D02*
G03*
X15800Y10500I-800J0D01*
G01*
X31473Y82100D02*
G03*
X31473Y82100I-800J0D01*
G01*
X149556Y49000D02*
G03*
X149556Y49000I-800J0D01*
G01*
X116800Y205000D02*
G03*
X116800Y205000I-800J0D01*
G01*
X113800Y26500D02*
G03*
X113800Y26500I-800J0D01*
G01*
X21339Y201461D02*
G03*
X21339Y201461I-800J0D01*
G01*
X33300Y137835D02*
G03*
X33300Y137835I-800J0D01*
G01*
X10465D02*
G03*
X10465Y137835I-800J0D01*
G01*
X33800Y122500D02*
G03*
X33800Y122500I-800J0D01*
G01*
X9308Y183728D02*
G03*
X9308Y183728I-800J0D01*
G01*
X29300Y176000D02*
G03*
X29300Y176000I-800J0D01*
G01*
X22417Y117500D02*
G03*
X22417Y117500I-800J0D01*
G01*
X39800Y43500D02*
G03*
X39800Y43500I-800J0D01*
G01*
X36527Y50703D02*
G03*
X36527Y50703I-800J0D01*
G01*
X45753Y47547D02*
G03*
X45753Y47547I-800J0D01*
G01*
X46300Y151500D02*
G03*
X46300Y151500I-800J0D01*
G01*
X49190Y145000D02*
G03*
X49190Y145000I-800J0D01*
G01*
X67800Y260500D02*
G03*
X67800Y260500I-800J0D01*
G01*
X101394Y260405D02*
G03*
X101394Y260405I-800J0D01*
G01*
X96768Y230469D02*
G03*
X96768Y230469I-800J0D01*
G01*
X76800Y238500D02*
G03*
X76800Y238500I-800J0D01*
G01*
X99769Y188839D02*
G03*
X99769Y188839I-800J0D01*
G01*
X80300Y217500D02*
G03*
X80300Y217500I-800J0D01*
G01*
X102800Y216000D02*
G03*
X102800Y216000I-800J0D01*
G01*
X86020Y196780D02*
G03*
X86020Y196780I-800J0D01*
G01*
X99800Y204752D02*
G03*
X99800Y204752I-800J0D01*
G01*
X108300D02*
G03*
X108300Y204752I-800J0D01*
G01*
X99331Y197031D02*
G03*
X99331Y197031I-800J0D01*
G01*
X117769D02*
G03*
X117769Y197031I-800J0D01*
G01*
X109576Y192776D02*
G03*
X109576Y192776I-800J0D01*
G01*
X109461Y188839D02*
G03*
X109461Y188839I-800J0D01*
G01*
X112521Y183721D02*
G03*
X112521Y183721I-800J0D01*
G01*
X92300Y173673D02*
G03*
X92300Y173673I-800J0D01*
G01*
X81879Y172887D02*
G03*
X81879Y172887I-800J0D01*
G01*
X117300Y178969D02*
G03*
X117300Y178969I-800J0D01*
G01*
X106800Y172000D02*
G03*
X106800Y172000I-800J0D01*
G01*
X100450Y169850D02*
G03*
X100450Y169850I-800J0D01*
G01*
X77371Y158429D02*
G03*
X77371Y158429I-800J0D01*
G01*
X77300Y149571D02*
G03*
X77300Y149571I-800J0D01*
G01*
X97229Y157500D02*
G03*
X97229Y157500I-800J0D01*
G01*
Y149571D02*
G03*
X97229Y149571I-800J0D01*
G01*
X76800Y127500D02*
G03*
X76800Y127500I-800J0D01*
G01*
X75800Y118468D02*
G03*
X75800Y118468I-800J0D01*
G01*
Y114532D02*
G03*
X75800Y114532I-800J0D01*
G01*
X74305Y105431D02*
G03*
X74305Y105431I-800J0D01*
G01*
X77300Y110000D02*
G03*
X77300Y110000I-800J0D01*
G01*
X62376Y113259D02*
G03*
X62376Y113259I-800J0D01*
G01*
X61800Y106000D02*
G03*
X61800Y106000I-800J0D01*
G01*
Y99500D02*
G03*
X61800Y99500I-800J0D01*
G01*
X69769Y102469D02*
G03*
X69769Y102469I-800J0D01*
G01*
X102331Y131468D02*
G03*
X102331Y131468I-800J0D01*
G01*
X99769Y118468D02*
G03*
X99769Y118468I-800J0D01*
G01*
X99769Y114532D02*
G03*
X99769Y114532I-800J0D01*
G01*
X103832Y105500D02*
G03*
X103832Y105500I-800J0D01*
G01*
X86363Y83969D02*
G03*
X86363Y83969I-800J0D01*
G01*
X74300Y83500D02*
G03*
X74300Y83500I-800J0D01*
G01*
X109300Y101416D02*
G03*
X109300Y101416I-800J0D01*
G01*
X86331Y80032D02*
G03*
X86331Y80032I-800J0D01*
G01*
X36324Y151500D02*
G03*
X36324Y151500I-800J0D01*
G01*
X41300Y141000D02*
G03*
X41300Y141000I-800J0D01*
G01*
X38800Y58000D02*
G03*
X38800Y58000I-800J0D01*
G01*
X36324Y75866D02*
G03*
X36324Y75866I-800J0D01*
G01*
X28800Y69500D02*
G03*
X28800Y69500I-800J0D01*
G01*
X26355Y113340D02*
G03*
X26355Y113340I-800J0D01*
G01*
X19219Y113259D02*
G03*
X19219Y113259I-800J0D01*
G01*
X17591Y84500D02*
G03*
X17591Y84500I-800J0D01*
G01*
X34769Y91031D02*
G03*
X34769Y91031I-800J0D01*
G01*
X31867Y113340D02*
G03*
X31867Y113340I-800J0D01*
G01*
X35738Y103000D02*
G03*
X35738Y103000I-800J0D01*
G01*
X13707Y113407D02*
G03*
X13707Y113407I-800J0D01*
G01*
X11282Y99000D02*
G03*
X11282Y99000I-800J0D01*
G01*
X22417Y102914D02*
G03*
X22417Y102914I-800J0D01*
G01*
X35738Y96938D02*
G03*
X35738Y96938I-800J0D01*
G01*
X11300Y93000D02*
G03*
X11300Y93000I-800J0D01*
G01*
X42753Y53453D02*
G03*
X42753Y53453I-800J0D01*
G01*
X12300Y85500D02*
G03*
X12300Y85500I-800J0D01*
G01*
X20300Y65500D02*
G03*
X20300Y65500I-800J0D01*
G01*
X73123Y21323D02*
G03*
X73123Y21323I-800J0D01*
G01*
X81879Y48000D02*
G03*
X81879Y48000I-800J0D01*
G01*
Y55421D02*
G03*
X81879Y55421I-800J0D01*
G01*
X22332Y23031D02*
G03*
X22332Y23031I-800J0D01*
G01*
X26355Y33000D02*
G03*
X26355Y33000I-800J0D01*
G01*
X54155Y15500D02*
G03*
X54155Y15500I-800J0D01*
G01*
X62300Y21500D02*
G03*
X62300Y21500I-800J0D01*
G01*
X146343Y100043D02*
G03*
X146343Y100043I-800J0D01*
G01*
X141800Y103500D02*
G03*
X141800Y103500I-800J0D01*
G01*
X132800Y100000D02*
G03*
X132800Y100000I-800J0D01*
G01*
X137800Y96500D02*
G03*
X137800Y96500I-800J0D01*
G01*
X155875Y96000D02*
G03*
X155875Y96000I-800J0D01*
G01*
X137800Y61000D02*
G03*
X137800Y61000I-800J0D01*
G01*
X161300Y96000D02*
G03*
X161300Y96000I-800J0D01*
G01*
X142800Y61000D02*
G03*
X142800Y61000I-800J0D01*
G01*
X155757Y88957D02*
G03*
X155757Y88957I-800J0D01*
G01*
X147800Y60000D02*
G03*
X147800Y60000I-800J0D01*
G01*
X158800Y72000D02*
G03*
X158800Y72000I-800J0D01*
G01*
X138560Y53740D02*
G03*
X138560Y53740I-800J0D01*
G01*
X126300Y60500D02*
G03*
X126300Y60500I-800J0D01*
G01*
X139800Y44500D02*
G03*
X139800Y44500I-800J0D01*
G01*
X147418Y29118D02*
G03*
X147418Y29118I-800J0D01*
G01*
X119056Y32744D02*
G03*
X119056Y32744I-800J0D01*
G01*
X52800Y83453D02*
G03*
X52800Y83453I-800J0D01*
G01*
D13*
X31073Y82100D02*
G03*
X31073Y82100I-400J0D01*
G01*
X149156Y49000D02*
G03*
X149156Y49000I-400J0D01*
G01*
X116400Y205000D02*
G03*
X116400Y205000I-400J0D01*
G01*
X113400Y26500D02*
G03*
X113400Y26500I-400J0D01*
G01*
X20939Y201461D02*
G03*
X20939Y201461I-400J0D01*
G01*
X32900Y137835D02*
G03*
X32900Y137835I-400J0D01*
G01*
X10065D02*
G03*
X10065Y137835I-400J0D01*
G01*
X33400Y122500D02*
G03*
X33400Y122500I-400J0D01*
G01*
X8908Y183728D02*
G03*
X8908Y183728I-400J0D01*
G01*
X28900Y176000D02*
G03*
X28900Y176000I-400J0D01*
G01*
X22017Y117500D02*
G03*
X22017Y117500I-400J0D01*
G01*
X39400Y43500D02*
G03*
X39400Y43500I-400J0D01*
G01*
X36127Y50703D02*
G03*
X36127Y50703I-400J0D01*
G01*
X45353Y47547D02*
G03*
X45353Y47547I-400J0D01*
G01*
X45900Y151500D02*
G03*
X45900Y151500I-400J0D01*
G01*
X48790Y145000D02*
G03*
X48790Y145000I-400J0D01*
G01*
X67400Y260500D02*
G03*
X67400Y260500I-400J0D01*
G01*
X100995Y260405D02*
G03*
X100995Y260405I-400J0D01*
G01*
X96368Y230469D02*
G03*
X96368Y230469I-400J0D01*
G01*
X76400Y238500D02*
G03*
X76400Y238500I-400J0D01*
G01*
X99369Y188839D02*
G03*
X99369Y188839I-400J0D01*
G01*
X79900Y217500D02*
G03*
X79900Y217500I-400J0D01*
G01*
X102400Y216000D02*
G03*
X102400Y216000I-400J0D01*
G01*
X85620Y196780D02*
G03*
X85620Y196780I-400J0D01*
G01*
X99400Y204752D02*
G03*
X99400Y204752I-400J0D01*
G01*
X107900D02*
G03*
X107900Y204752I-400J0D01*
G01*
X98931Y197031D02*
G03*
X98931Y197031I-400J0D01*
G01*
X117368D02*
G03*
X117368Y197031I-400J0D01*
G01*
X109176Y192776D02*
G03*
X109176Y192776I-400J0D01*
G01*
X109061Y188839D02*
G03*
X109061Y188839I-400J0D01*
G01*
X112120Y183721D02*
G03*
X112120Y183721I-400J0D01*
G01*
X91900Y173673D02*
G03*
X91900Y173673I-400J0D01*
G01*
X81479Y172887D02*
G03*
X81479Y172887I-400J0D01*
G01*
X116900Y178969D02*
G03*
X116900Y178969I-400J0D01*
G01*
X106400Y172000D02*
G03*
X106400Y172000I-400J0D01*
G01*
X100050Y169850D02*
G03*
X100050Y169850I-400J0D01*
G01*
X76971Y158429D02*
G03*
X76971Y158429I-400J0D01*
G01*
X76900Y149571D02*
G03*
X76900Y149571I-400J0D01*
G01*
X96829Y157500D02*
G03*
X96829Y157500I-400J0D01*
G01*
Y149571D02*
G03*
X96829Y149571I-400J0D01*
G01*
X76400Y127500D02*
G03*
X76400Y127500I-400J0D01*
G01*
X75400Y118468D02*
G03*
X75400Y118468I-400J0D01*
G01*
Y114532D02*
G03*
X75400Y114532I-400J0D01*
G01*
X73905Y105431D02*
G03*
X73905Y105431I-400J0D01*
G01*
X76900Y110000D02*
G03*
X76900Y110000I-400J0D01*
G01*
X61976Y113259D02*
G03*
X61976Y113259I-400J0D01*
G01*
X61400Y106000D02*
G03*
X61400Y106000I-400J0D01*
G01*
Y99500D02*
G03*
X61400Y99500I-400J0D01*
G01*
X69368Y102469D02*
G03*
X69368Y102469I-400J0D01*
G01*
X101932Y131468D02*
G03*
X101932Y131468I-400J0D01*
G01*
X99369Y118468D02*
G03*
X99369Y118468I-400J0D01*
G01*
X99369Y114532D02*
G03*
X99369Y114532I-400J0D01*
G01*
X103431Y105500D02*
G03*
X103431Y105500I-400J0D01*
G01*
X85963Y83969D02*
G03*
X85963Y83969I-400J0D01*
G01*
X73900Y83500D02*
G03*
X73900Y83500I-400J0D01*
G01*
X108900Y101416D02*
G03*
X108900Y101416I-400J0D01*
G01*
X85931Y80032D02*
G03*
X85931Y80032I-400J0D01*
G01*
X35924Y151500D02*
G03*
X35924Y151500I-400J0D01*
G01*
X40900Y141000D02*
G03*
X40900Y141000I-400J0D01*
G01*
X38400Y58000D02*
G03*
X38400Y58000I-400J0D01*
G01*
X35924Y75866D02*
G03*
X35924Y75866I-400J0D01*
G01*
X28400Y69500D02*
G03*
X28400Y69500I-400J0D01*
G01*
X25955Y113340D02*
G03*
X25955Y113340I-400J0D01*
G01*
X18819Y113259D02*
G03*
X18819Y113259I-400J0D01*
G01*
X17191Y84500D02*
G03*
X17191Y84500I-400J0D01*
G01*
X34369Y91031D02*
G03*
X34369Y91031I-400J0D01*
G01*
X31467Y113340D02*
G03*
X31467Y113340I-400J0D01*
G01*
X35338Y103000D02*
G03*
X35338Y103000I-400J0D01*
G01*
X13307Y113407D02*
G03*
X13307Y113407I-400J0D01*
G01*
X10882Y99000D02*
G03*
X10882Y99000I-400J0D01*
G01*
X22017Y102914D02*
G03*
X22017Y102914I-400J0D01*
G01*
X35338Y96938D02*
G03*
X35338Y96938I-400J0D01*
G01*
X10900Y93000D02*
G03*
X10900Y93000I-400J0D01*
G01*
X42353Y53453D02*
G03*
X42353Y53453I-400J0D01*
G01*
X11900Y85500D02*
G03*
X11900Y85500I-400J0D01*
G01*
X19900Y65500D02*
G03*
X19900Y65500I-400J0D01*
G01*
X72723Y21323D02*
G03*
X72723Y21323I-400J0D01*
G01*
X81479Y48000D02*
G03*
X81479Y48000I-400J0D01*
G01*
Y55421D02*
G03*
X81479Y55421I-400J0D01*
G01*
X21932Y23031D02*
G03*
X21932Y23031I-400J0D01*
G01*
X25955Y33000D02*
G03*
X25955Y33000I-400J0D01*
G01*
X53755Y15500D02*
G03*
X53755Y15500I-400J0D01*
G01*
X61900Y21500D02*
G03*
X61900Y21500I-400J0D01*
G01*
X145943Y100043D02*
G03*
X145943Y100043I-400J0D01*
G01*
X141400Y103500D02*
G03*
X141400Y103500I-400J0D01*
G01*
X132400Y100000D02*
G03*
X132400Y100000I-400J0D01*
G01*
X137400Y96500D02*
G03*
X137400Y96500I-400J0D01*
G01*
X155475Y96000D02*
G03*
X155475Y96000I-400J0D01*
G01*
X137400Y61000D02*
G03*
X137400Y61000I-400J0D01*
G01*
X160900Y96000D02*
G03*
X160900Y96000I-400J0D01*
G01*
X142400Y61000D02*
G03*
X142400Y61000I-400J0D01*
G01*
X155357Y88957D02*
G03*
X155357Y88957I-400J0D01*
G01*
X147400Y60000D02*
G03*
X147400Y60000I-400J0D01*
G01*
X158400Y72000D02*
G03*
X158400Y72000I-400J0D01*
G01*
X138160Y53740D02*
G03*
X138160Y53740I-400J0D01*
G01*
X125900Y60500D02*
G03*
X125900Y60500I-400J0D01*
G01*
X139400Y44500D02*
G03*
X139400Y44500I-400J0D01*
G01*
X147018Y29118D02*
G03*
X147018Y29118I-400J0D01*
G01*
X118656Y32744D02*
G03*
X118656Y32744I-400J0D01*
G01*
X52400Y83453D02*
G03*
X52400Y83453I-400J0D01*
G01*
M02*
